<svg width="640" height="745" viewBox="0 0 640 745" fill="none" xmlns="http://www.w3.org/2000/svg">
<g id="Arte wave">
<g id="bg-plasma">
<path id="Vector" opacity="0.1" d="M386.132 172.107C347.5 170.591 310.707 156.517 275.574 141.117C240.44 125.716 205.641 108.651 167.935 100.492C143.683 95.244 115.945 94.5029 96.4081 109.176C77.5998 123.324 71.5233 147.678 68.2583 170.301C65.799 187.319 64.3545 205.233 71.0876 221.159C75.7673 232.222 84.0642 241.519 89.8064 252.116C109.785 288.981 95.662 334.443 74.0184 370.439C63.8711 387.329 52.0823 403.45 44.245 421.411C36.4077 439.372 32.7845 459.981 39.6429 478.319C46.4356 496.509 62.6295 510.145 80.1724 519.745C115.801 539.249 157.77 544.827 198.723 547.987C289.35 554.987 380.455 551.955 471.321 548.923C504.951 547.798 538.723 546.66 571.804 540.792C590.176 537.531 609.14 532.364 622.481 519.873C639.409 504.021 643.605 477.181 632.258 457.3C613.229 423.958 560.63 415.678 547.313 379.898C539.995 360.199 547.51 338.263 558.153 319.992C580.978 280.809 619.234 246.43 621.245 201.642C622.63 170.881 604.239 140.072 575.803 125.514C546 110.261 504.664 112.174 482.686 137.431C460.034 163.436 420.245 173.441 386.132 172.107Z" fill="#1D3557"/>
</g>
<path id="Vector 1" d="M0 0C146.448 430.029 561.517 271.105 640 745H0V0Z" fill="#1D3557"/>
<g id="man-phone">
<path id="Vector_2" d="M257.191 223.91C257.191 223.91 273.737 203.093 282.762 204.707C282.762 204.707 272.734 223.264 257.191 226.031V223.91Z" fill="#38D39F"/>
<path id="Vector_3" d="M265.53 198.252C265.53 198.252 280.16 182.288 288.057 182.328C288.057 182.328 276.513 203.652 264.933 203.456L265.53 198.252Z" fill="#38D39F"/>
<path id="Vector_4" d="M433.325 255.884H430.77C430.016 255.884 429.404 256.475 429.404 257.204V296.648C429.404 297.377 430.016 297.968 430.77 297.968H433.325C434.08 297.968 434.692 297.377 434.692 296.648V257.204C434.692 256.475 434.08 255.884 433.325 255.884Z" fill="#3A3768"/>
<path id="Vector_5" d="M255.257 222.913H255.024C254.269 222.913 253.658 223.504 253.658 224.232V235.448C253.658 236.177 254.269 236.768 255.024 236.768H255.257C256.011 236.768 256.623 236.177 256.623 235.448V224.232C256.623 223.504 256.011 222.913 255.257 222.913Z" fill="#3A3768"/>
<path id="Vector_6" d="M255.526 248.283H254.917C254.162 248.283 253.55 248.874 253.55 249.603V271.077C253.55 271.805 254.162 272.396 254.917 272.396H255.526C256.281 272.396 256.893 271.805 256.893 271.077V249.603C256.893 248.874 256.281 248.283 255.526 248.283Z" fill="#3A3768"/>
<path id="Vector_7" d="M255.418 280.834H254.97C254.215 280.834 253.603 281.425 253.603 282.154V303.835C253.603 304.564 254.215 305.155 254.97 305.155H255.418C256.173 305.155 256.785 304.564 256.785 303.835V282.154C256.785 281.425 256.173 280.834 255.418 280.834Z" fill="#3A3768"/>
<path id="Vector_8" d="M408.983 177.129H278.608C265.754 177.129 255.334 187.19 255.334 199.6V501.832C255.334 514.243 265.754 524.304 278.608 524.304H408.983C421.837 524.304 432.256 514.243 432.256 501.832V199.6C432.256 187.19 421.837 177.129 408.983 177.129Z" fill="#302E47"/>
<path id="Vector_9" d="M407.3 186.149H387.005V188.506C387.005 189.973 386.706 191.426 386.124 192.782C385.543 194.137 384.69 195.369 383.615 196.406C382.54 197.443 381.264 198.266 379.86 198.827C378.456 199.388 376.951 199.676 375.432 199.675H310.888C309.369 199.676 307.864 199.388 306.46 198.827C305.056 198.266 303.78 197.443 302.705 196.406C301.63 195.369 300.777 194.137 300.196 192.782C299.614 191.426 299.314 189.973 299.314 188.506V186.149H280.315C276.588 186.149 273.014 187.578 270.379 190.122C267.744 192.667 266.264 196.117 266.264 199.716V501.694C266.264 505.292 267.744 508.743 270.379 511.287C273.014 513.832 276.588 515.261 280.315 515.261H407.3C411.027 515.261 414.601 513.832 417.236 511.287C419.871 508.743 421.351 505.292 421.351 501.694V199.739C421.354 197.955 420.993 196.188 420.289 194.54C419.584 192.891 418.549 191.393 417.244 190.131C415.939 188.868 414.389 187.867 412.683 187.184C410.977 186.5 409.147 186.149 407.3 186.149Z" fill="#38629D"/>
<path id="Vector_10" d="M349.126 187.497H329.04C327.765 187.497 326.73 188.496 326.73 189.728V190.108C326.73 191.34 327.765 192.338 329.04 192.338H349.126C350.402 192.338 351.436 191.34 351.436 190.108V189.728C351.436 188.496 350.402 187.497 349.126 187.497Z" fill="#E6E8EC"/>
<path id="Vector_11" d="M358.02 192.667C359.592 192.667 360.867 191.437 360.867 189.918C360.867 188.4 359.592 187.169 358.02 187.169C356.447 187.169 355.173 188.4 355.173 189.918C355.173 191.437 356.447 192.667 358.02 192.667Z" fill="#E6E8EC"/>
<path id="Vector_12" opacity="0.1" d="M405.563 219.207H282.034V472.353H405.563V219.207Z" fill="#1D3557"/>
<path id="Vector_13" d="M401.779 543.023C401.779 543.023 398.866 536.476 397.565 533.456C396.831 531.727 395.589 531.439 394.64 531.479L394.694 530.903L394.927 528.177L394.974 527.6C397.225 527.145 399.153 526.788 399.153 526.788L397.75 456.867C397.75 456.867 397.153 456.13 395.708 451.68C394.992 449.462 391.53 446.736 388.295 444.563C387.788 444.223 387.292 443.9 386.803 443.589C387.981 442.636 389.219 441.754 390.509 440.949C392.348 439.918 392.957 434.033 392.957 434.033L392.652 434.61C392.957 434.033 392.652 419.008 392.652 419.008L391.578 403.413C391.578 403.413 390.814 384.873 384.845 380.014C378.876 375.156 371.337 373.455 371.337 373.455L367.159 372.418L359.459 370.51C359.244 370.17 359.035 369.813 358.862 369.438C358.784 369.294 358.712 369.145 358.641 368.995C360.993 367.387 362.912 365.257 364.236 362.785C365.56 360.314 366.251 357.571 366.251 354.788C366.253 353.854 366.175 352.921 366.019 351.999C366.019 351.826 365.953 351.647 365.917 351.474C366.55 351.056 367.148 350.592 367.708 350.085C368.62 349.384 369.365 348.501 369.892 347.498C369.975 347.301 370.043 347.099 370.095 346.892C370.095 346.835 370.095 346.777 370.131 346.714C370.167 346.65 370.185 346.408 370.203 346.253C370.203 346.195 370.203 346.138 370.203 346.08C370.203 345.913 370.203 345.74 370.203 345.573C370.203 345.532 370.203 345.492 370.203 345.446C370.203 345.256 370.173 345.066 370.143 344.87C370.146 344.858 370.146 344.846 370.143 344.835C370.034 344.166 369.854 343.509 369.606 342.875C369.009 341.389 368.233 339.994 367.953 338.409C367.606 336.536 368.006 334.49 367.081 332.807C366.697 332.171 366.172 331.624 365.543 331.207C364.915 330.789 364.199 330.511 363.446 330.392C361.931 330.167 360.381 330.338 358.957 330.888C358.261 331.207 357.511 331.403 356.743 331.464C356.184 331.433 355.636 331.304 355.125 331.084C353.353 330.413 351.67 329.54 350.111 328.485C348.989 327.63 347.791 326.874 346.53 326.225C345.896 325.906 345.197 325.726 344.483 325.698C343.769 325.67 343.057 325.795 342.399 326.064C340.191 327.147 339.773 330.167 337.719 331.499C336.305 332.421 334.46 332.329 332.753 332.386C331.046 332.444 329.112 332.853 328.27 334.282C327.673 335.274 327.817 336.455 327.93 337.614L327.966 338.006C327.966 338.144 327.966 338.288 328.002 338.426C328.096 339.908 327.866 341.393 327.327 342.783C326.504 344.893 324.94 346.973 324.993 349.123C324.998 349.465 325.044 349.805 325.131 350.137C325.177 350.303 325.233 350.467 325.298 350.627C325.626 351.339 325.995 352.034 326.402 352.708L326.456 352.8C326.498 352.881 326.539 352.961 326.575 353.042C326.611 353.123 326.683 353.261 326.724 353.37C326.766 353.48 326.772 353.48 326.79 353.532C326.808 353.584 326.868 353.745 326.898 353.855C326.996 354.18 327.038 354.519 327.023 354.857C326.953 355.294 326.915 355.735 326.909 356.177C326.912 356.398 326.992 356.612 327.138 356.783C327.283 356.954 327.485 357.072 327.709 357.117C327.956 357.111 328.195 357.039 328.402 356.909C328.937 356.614 329.446 356.277 329.924 355.901C329.924 356.085 329.924 356.269 329.96 356.477C330.375 360.602 332.299 364.449 335.385 367.329C335.385 367.508 335.385 367.692 335.344 367.905C335.302 368.119 335.314 368.32 335.302 368.534L328.617 370.562C328.617 370.562 328.652 370.678 328.724 370.874L328.02 371.144C324.552 372.499 320.69 374.182 318.529 375.709C317.574 376.377 316.702 376.925 315.92 377.38C313.081 379.058 310.905 381.604 309.737 384.613L309.647 384.832C309.05 386.152 306.125 395.131 306.125 395.131C306.125 395.131 303.982 400.134 303.672 403.373C303.672 403.373 300.15 414.11 301.07 421.175C301.07 421.175 298.312 431.33 299.386 432.944C299.386 432.944 298.288 437.313 303.111 441.71C302.759 441.917 302.377 442.142 301.977 442.39C298.24 444.661 292.85 448.344 291.931 451.185C290.504 455.605 289.89 456.372 289.89 456.372L288.445 526.182C288.445 526.182 290.373 526.54 292.623 526.989L292.671 527.566L292.904 530.286L292.958 530.862C292.009 530.822 290.767 531.139 290.033 532.845C288.726 535.859 285.855 542.4 285.855 542.4C285.855 542.4 279.426 548.164 283.324 553.512C283.495 553.756 283.696 553.98 283.921 554.18C286.72 556.636 292.689 555.062 296.933 553.46C299.09 552.571 300.949 551.123 302.305 549.276C302.476 549.06 302.692 548.88 302.938 548.748C303.185 548.616 303.457 548.535 303.738 548.509C304.711 548.358 305.629 547.971 306.406 547.386C306.874 547.056 307.252 546.621 307.508 546.119C307.763 545.617 307.889 545.063 307.874 544.504C307.871 544.475 307.871 544.446 307.874 544.417L307.498 536.216C307.498 536.216 307.039 530.488 305.576 530.856L305.2 530.943L305.099 530.367L304.902 529.254L304.8 528.678H305.612C305.612 528.678 305.815 522.2 308.268 517.105C310.721 512.011 312.333 470.855 312.333 470.855C312.333 470.855 342.698 471.333 343.712 468.584C344.309 468.584 344.96 468.584 345.581 468.544C346.601 471.293 375.259 471.425 375.259 471.425C375.259 471.425 376.888 512.627 379.335 517.728C379.852 518.82 380.281 519.949 380.619 521.105C381.389 523.778 381.851 526.524 381.998 529.295H382.809L382.702 529.871L382.505 530.977L382.403 531.554L382.016 531.467C380.565 531.104 380.105 536.833 380.105 536.833L379.717 545.086C379.687 545.643 379.801 546.198 380.049 546.701C380.297 547.204 380.672 547.639 381.138 547.968C381.928 548.566 382.863 548.963 383.854 549.12C384.135 549.142 384.408 549.221 384.655 549.352C384.902 549.483 385.117 549.664 385.287 549.881C386.644 551.727 388.503 553.175 390.659 554.065C395.243 555.794 401.833 557.483 404.28 554.123C408.208 548.763 401.779 543.023 401.779 543.023ZM324.599 440.24H324.671H324.599ZM372.561 416.68C372.561 416.68 373.331 419.475 374.703 420.945C376.076 422.415 375.396 431.544 375.396 431.544C374.856 431.577 374.32 431.66 373.796 431.791C372.74 425.723 371.767 418.985 372.561 416.68Z" fill="url(#paint0_linear)"/>
<path id="Vector_14" d="M306.537 531.721L294.533 532.874L294.199 528.995L293.966 526.327L293.638 522.425L304.979 523.001L305.88 528.01L306.071 529.099H306.077L306.537 531.721Z" fill="#8E6F7F"/>
<path id="Vector_15" d="M393.954 523.007L393.625 526.903L393.399 529.571L393.058 533.45L381.049 532.297L381.526 529.675L381.711 528.592L382.612 523.583L393.954 523.007Z" fill="#8E6F7F"/>
<path id="Vector_16" d="M381.233 466.878L345.539 468.498C343.915 468.575 342.292 468.575 340.668 468.498L306.567 466.884V440.8H381.233V466.878Z" fill="#5F5570"/>
<path id="Vector_17" opacity="0.1" d="M381.233 466.878L345.539 468.498C343.915 468.575 342.292 468.575 340.668 468.498L306.567 466.884V440.8H381.233V466.878Z" fill="black"/>
<path id="Vector_18" d="M335.523 370.522C335.523 370.522 323.633 374.377 319.156 377.547C318.225 378.204 317.365 378.746 316.613 379.19C313.848 380.836 311.732 383.327 310.602 386.267C310.572 386.348 310.542 386.417 310.513 386.48C309.916 387.777 307.08 396.566 307.08 396.566C307.08 396.566 304.991 401.465 304.693 404.635C304.394 407.805 321.704 416.305 321.704 416.305C321.704 416.305 313.348 433.883 317.079 438.35C320.809 442.816 375.276 444.978 374.083 438.35C372.889 431.722 370.8 420.772 371.844 417.746L390.348 404.779C390.348 404.779 389.602 386.624 383.782 381.87C377.963 377.115 370.65 375.386 370.65 375.386L359.065 372.504C359.065 372.504 354.982 382.302 350.505 383.599C346.028 384.895 336.221 378.907 335.523 370.522Z" fill="#EAEAF2"/>
<path id="Vector_19" opacity="0.1" d="M352.224 387.022C352.224 387.022 347.174 391.091 344.524 387.022C344.524 387.022 342.136 393.904 344.524 396.209L344.434 396.676L344.011 398.728L338.483 443.105L343.032 450.684L351.311 440.655L350.642 399.16L350.344 396.78L350.272 396.203H351.687C351.687 396.203 355.441 389.939 352.224 387.022Z" fill="black"/>
<path id="Vector_20" opacity="0.1" d="M353.418 387.022C353.418 387.022 348.368 391.091 345.718 387.022C345.718 387.022 343.33 393.904 345.718 396.209L345.628 396.676L345.204 398.728L339.677 443.105L344.226 450.684L352.505 440.655L351.836 399.16L351.538 396.78L351.466 396.203H352.881C352.881 396.203 356.635 389.939 353.418 387.022Z" fill="#F5C927"/>
<path id="Vector_21" d="M351.908 440.085L343.628 450.096L339.068 442.557L344.601 398.157L345.025 396.105L345.121 395.633L345.867 393.765L350.869 395.633L350.941 396.209L351.239 398.589L351.908 440.085Z" fill="#BC8487"/>
<path id="Vector_22" opacity="0.1" d="M305.88 528.004C303.305 527.988 300.736 527.735 298.21 527.249C296.963 526.949 295.399 526.615 293.972 526.321L293.638 522.419L304.979 522.996L305.88 528.004Z" fill="black"/>
<path id="Vector_23" d="M343.718 468.55C342.727 471.241 313.133 470.769 313.133 470.769C313.133 470.769 311.545 511.112 309.158 516.108C306.77 521.105 306.567 527.439 306.567 527.439C306.567 527.439 301.398 527.439 298.21 526.672C295.023 525.906 289.854 524.943 289.854 524.943L291.251 456.504C291.251 456.504 291.847 455.784 293.238 451.456C294.134 448.672 299.386 445.064 303.021 442.811C305.051 441.578 306.567 440.771 306.567 440.771L324.223 441.462L335.123 441.889C335.123 441.889 344.715 465.858 343.718 468.55Z" fill="#5F5570"/>
<path id="Vector_24" opacity="0.1" d="M306.543 531.715L294.533 532.868L294.193 528.989C294.643 529.001 295.086 529.095 295.5 529.266C297.691 530.787 303.952 529.577 306.071 529.093L306.543 531.715Z" fill="black"/>
<path id="Vector_25" d="M308.811 542.925C308.826 543.472 308.702 544.014 308.452 544.505C308.201 544.996 307.831 545.421 307.373 545.743C306.617 546.315 305.724 546.694 304.776 546.844C304.503 546.867 304.237 546.945 303.998 547.074C303.758 547.203 303.549 547.38 303.386 547.593C302.059 549.4 300.241 550.818 298.133 551.691C293.996 553.258 288.176 554.797 285.449 552.394C285.223 552.201 285.023 551.982 284.852 551.743C281.049 546.487 287.317 540.862 287.317 540.862C287.317 540.862 290.146 534.453 291.418 531.502C291.555 531.119 291.774 530.769 292.061 530.473C292.349 530.178 292.697 529.944 293.084 529.788C293.471 529.631 293.888 529.555 294.307 529.564C294.727 529.574 295.139 529.668 295.518 529.842C297.906 531.502 305.146 529.911 306.561 529.56C307.976 529.208 308.429 534.81 308.429 534.81L308.811 542.838C308.808 542.867 308.808 542.896 308.811 542.925Z" fill="#BC8487"/>
<path id="Vector_26" opacity="0.1" d="M393.96 523.001L393.625 526.897C392.199 527.191 390.641 527.525 389.381 527.825C386.857 528.312 384.291 528.567 381.717 528.586L382.619 523.578L393.96 523.001Z" fill="black"/>
<path id="Vector_27" d="M397.75 525.52C397.75 525.52 392.581 526.482 389.393 527.249C386.206 528.015 381.036 528.015 381.036 528.015C381.036 528.015 380.839 521.676 378.452 516.685C376.064 511.694 374.471 471.345 374.471 471.345C374.471 471.345 346.547 471.189 345.551 468.498C344.554 465.806 357.721 442.563 357.721 442.563L365.75 442.16L381.036 441.376C381.036 441.376 384.021 442.943 387.149 445.058C390.277 447.174 393.673 449.859 394.371 452.032C395.762 456.36 396.359 457.081 396.359 457.081L397.75 525.52Z" fill="#5F5570"/>
<path id="Vector_28" opacity="0.1" d="M393.399 529.566L393.064 533.444L381.049 532.292L381.526 529.669C383.645 530.159 389.883 531.364 392.091 529.842C392.505 529.671 392.949 529.578 393.399 529.566Z" fill="black"/>
<path id="Vector_29" d="M392.091 530.418C392.471 530.244 392.884 530.148 393.304 530.138C393.724 530.128 394.142 530.204 394.529 530.361C394.917 530.518 395.266 530.752 395.554 531.047C395.841 531.343 396.061 531.695 396.198 532.078C397.463 535.029 400.299 541.444 400.299 541.444C400.299 541.444 406.566 547.063 402.764 552.319C400.376 555.616 393.954 553.961 389.489 552.267C387.378 551.398 385.56 549.979 384.236 548.169C384.071 547.956 383.862 547.779 383.621 547.65C383.38 547.521 383.114 547.442 382.839 547.42C381.87 547.257 380.958 546.861 380.189 546.267C379.737 545.945 379.375 545.519 379.134 545.028C378.894 544.538 378.782 543.997 378.81 543.455L379.186 535.386C379.186 535.386 379.634 529.779 381.049 530.13C382.463 530.482 389.704 532.078 392.091 530.418Z" fill="#BC8487"/>
<path id="Vector_30" d="M361.238 375.386L349.186 387.72L348.852 388.065L348.416 387.818C345.897 386.377 333.297 379.034 334.377 376.827C334.974 375.571 335.326 372.954 335.511 370.701C335.511 370.43 335.547 370.165 335.571 369.905C335.69 368.124 335.72 366.741 335.72 366.741C335.72 366.741 358.402 362.995 357.507 366.741C357.143 368.257 357.686 369.963 358.456 371.456C358.683 371.888 358.934 372.297 359.178 372.683C359.781 373.641 360.47 374.545 361.238 375.386Z" fill="#FFC4D0"/>
<path id="Vector_31" opacity="0.1" d="M358.456 371.456C355.072 373.863 350.911 375.03 346.718 374.745C342.525 374.461 338.573 372.746 335.571 369.905C335.69 368.124 335.72 366.741 335.72 366.741C335.72 366.741 358.402 362.995 357.507 366.741C357.16 368.268 357.686 369.963 358.456 371.456Z" fill="black"/>
<path id="Vector_32" d="M365.66 357.111C365.726 361.547 364.003 365.834 360.856 369.066C357.709 372.299 353.384 374.224 348.794 374.435C344.204 374.646 339.709 373.126 336.258 370.197C332.807 367.268 330.671 363.158 330.3 358.736C330.252 358.198 330.228 357.656 330.228 357.111C330.185 354.839 330.611 352.582 331.481 350.471C332.352 348.36 333.649 346.438 335.298 344.817C336.946 343.196 338.913 341.908 341.083 341.029C343.252 340.15 345.582 339.697 347.935 339.697C350.288 339.697 352.618 340.15 354.787 341.029C356.957 341.908 358.924 343.196 360.572 344.817C362.221 346.438 363.518 348.36 364.389 350.471C365.259 352.582 365.685 354.839 365.642 357.111H365.66Z" fill="#FFC4D0"/>
<path id="Vector_33" opacity="0.1" d="M365.439 354.379C364.978 354.742 364.444 355.007 363.87 355.156C363.296 355.306 362.696 355.338 362.108 355.249C359.375 354.673 358.438 350.639 355.644 350.362C352.851 350.086 350.994 353.82 348.165 353.745C346.971 353.716 345.897 352.961 344.798 352.437C342.876 351.521 339.713 350.962 337.636 351.653C334.514 352.685 333.457 355.474 331.464 357.693C331.123 358.071 330.75 358.42 330.347 358.736C330.3 358.198 330.276 357.657 330.276 357.111C330.235 352.786 331.893 348.607 334.916 345.416C337.939 342.224 342.102 340.257 346.567 339.911C351.032 339.565 355.467 340.865 358.978 343.549C362.49 346.234 364.818 350.104 365.493 354.379H365.439Z" fill="black"/>
<path id="Vector_34" d="M344.799 351.866C345.897 352.385 346.948 353.146 348.165 353.174C350.989 353.244 352.833 349.492 355.639 349.786C358.444 350.08 359.369 354.079 362.115 354.673C363.959 355.076 365.696 353.745 367.075 352.506C367.966 351.821 368.693 350.958 369.206 349.976C369.803 348.546 369.493 346.898 368.937 345.446C368.382 343.993 367.6 342.599 367.326 341.072C366.992 339.239 367.38 337.233 366.478 335.585C366.105 334.962 365.594 334.427 364.981 334.019C364.367 333.61 363.668 333.338 362.933 333.222C361.456 333.001 359.945 333.166 358.557 333.7C357.881 334.017 357.151 334.212 356.403 334.277C355.856 334.244 355.32 334.118 354.821 333.902C353.094 333.245 351.455 332.392 349.938 331.36C348.85 330.522 347.685 329.781 346.458 329.147C345.842 328.835 345.161 328.659 344.465 328.632C343.769 328.605 343.076 328.728 342.435 328.992C340.286 330.052 339.874 333.026 337.875 334.311C336.496 335.21 334.699 335.118 333.04 335.181C331.38 335.245 329.458 335.631 328.67 337.031C327.966 338.236 328.318 339.717 328.408 341.095C328.497 342.545 328.271 343.998 327.745 345.359C326.82 347.745 324.94 350.097 325.608 352.563C326.044 354.183 327.548 355.526 327.459 357.174C327.388 357.599 327.351 358.029 327.345 358.459C327.347 358.676 327.426 358.886 327.568 359.053C327.71 359.221 327.908 359.337 328.127 359.381C328.367 359.379 328.6 359.306 328.796 359.174C329.788 358.638 330.679 357.942 331.428 357.116C333.446 354.892 334.49 352.108 337.612 351.077C339.719 350.402 342.877 350.944 344.799 351.866Z" fill="#8E6F7F"/>
<path id="Vector_35" d="M365.338 452.47L362.115 453.317L354.671 455.294C352.949 456.533 351.01 457.464 348.947 458.043C344.393 459.156 341.45 456.735 339.003 452.989C338.018 451.49 338.513 450.292 339.802 449.352C342.906 447.087 350.583 446.35 352.934 446.649C354.479 446.771 356.031 446.538 357.465 445.969C358.482 445.612 359.463 445.164 360.396 444.632L365.338 452.47Z" fill="#FFC4D0"/>
<path id="Vector_36" opacity="0.1" d="M365.338 452.47L362.115 453.317C361.189 450.626 359.667 447.249 357.489 445.952C358.506 445.594 359.487 445.147 360.419 444.615L365.338 452.47Z" fill="black"/>
<path id="Vector_37" opacity="0.1" d="M387.137 445.058C385.8 446.102 384.666 447.053 384.666 447.053C384.666 447.053 369.146 451.75 366.162 457.657C366.162 457.657 363.774 446.13 358.7 445.986C358.7 445.986 364.162 443.917 365.738 442.148L381.037 441.376C381.037 441.376 384.021 442.943 387.137 445.058Z" fill="black"/>
<path id="Vector_38" d="M386.904 399.88L390.337 404.779L391.381 420.052C391.381 420.052 391.68 434.748 391.381 435.324L391.68 434.748C391.68 434.748 391.083 440.511 389.292 441.52C387.501 442.528 383.472 445.9 383.472 445.9C383.472 445.9 367.953 450.597 364.968 456.504C364.968 456.504 362.581 444.978 357.507 444.834C357.507 444.834 365.117 441.952 364.968 440.079C364.968 440.079 370.788 435.036 371.236 433.739C371.683 432.443 374.59 432.299 374.59 432.299C374.59 432.299 375.265 423.366 373.922 421.925C372.579 420.484 371.833 417.746 371.833 417.746L386.904 399.88Z" fill="#EAEAF2"/>
<path id="Vector_39" opacity="0.1" d="M348.947 458.026C344.393 459.138 341.45 456.718 339.003 452.971C338.018 451.473 338.513 450.274 339.802 449.335L340.268 449.513C340.268 449.513 348.475 452.948 348.947 458.026Z" fill="black"/>
<path id="Vector_40" d="M347.061 462.631C341.689 469.835 331.691 459.818 330.945 457.801C330.676 457.069 329.655 456.418 328.48 455.894C326.988 455.264 325.439 454.768 323.854 454.412L332.735 447.427L334.437 448.084L339.671 450.107C339.671 450.107 352.433 455.427 347.061 462.631Z" fill="#FFC4D0"/>
<path id="Vector_41" opacity="0.1" d="M334.436 448.084C329.542 450.332 328.497 453.565 328.467 455.893C326.975 455.264 325.427 454.768 323.841 454.412L332.723 447.427L334.436 448.084Z" fill="black"/>
<path id="Vector_42" opacity="0.1" d="M326.617 460.539C326.617 460.539 312.291 449.589 305.427 444.834C304.568 444.243 303.769 443.575 303.039 442.84C305.069 441.606 306.585 440.8 306.585 440.8L324.241 441.491C324.713 442.281 324.994 442.817 324.994 442.817L334.544 448.868C323.036 452.47 326.617 460.539 326.617 460.539Z" fill="black"/>
<path id="Vector_43" d="M307.516 403.05L304.681 404.635C304.681 404.635 301.249 415.153 302.144 422.069C302.144 422.069 299.458 432.01 300.503 433.595C300.503 433.595 299.16 438.926 306.024 443.681C312.888 448.436 327.214 459.386 327.214 459.386C327.214 459.386 323.633 451.317 335.123 447.715L325.573 441.664C325.573 441.664 322.367 435.52 319.305 434.171C319.305 434.171 316.917 431.866 318.41 430.281C319.902 428.696 321.096 426.967 321.096 425.382C321.096 423.798 321.693 416.305 321.693 416.305L323.483 408.237L307.516 403.05Z" fill="#EAEAF2"/>
<path id="Vector_44" opacity="0.1" d="M350.941 396.204H345.121C345.086 396.173 345.054 396.138 345.026 396.101L345.121 395.628L345.867 393.759L350.869 395.628L350.941 396.204Z" fill="black"/>
<path id="Vector_45" d="M352.821 386.446C352.821 386.446 347.771 390.515 345.121 386.446C345.121 386.446 342.733 393.327 345.121 395.633H352.284C352.284 395.633 356.038 389.362 352.821 386.446Z" fill="#BC8487"/>
<path id="Vector_46" opacity="0.1" d="M359.65 373.081L367.171 374.954C367.171 374.954 360.044 392.82 358.474 392.82L349.448 388.642L359.65 373.081Z" fill="black"/>
<path id="Vector_47" opacity="0.1" d="M361.237 375.386L349.186 387.72L348.852 388.066L348.416 387.818L358.951 372.303L359.208 372.712C359.802 373.659 360.482 374.554 361.237 375.386Z" fill="black"/>
<path id="Vector_48" d="M359.053 372.505L366.574 374.378C366.574 374.378 359.447 392.244 357.877 392.244L348.852 388.065L359.053 372.505Z" fill="#EAEAF2"/>
<path id="Vector_49" opacity="0.1" d="M334.926 371.098L328.408 373.081C328.408 373.081 334.824 391.812 336.615 392.82L348.255 388.642L334.926 371.098Z" fill="black"/>
<path id="Vector_50" opacity="0.1" d="M349.186 387.719L348.852 388.065C348.852 388.065 333.183 379.276 334.377 376.827C334.974 375.57 335.326 372.954 335.511 370.7V370.349L349.186 387.719Z" fill="black"/>
<path id="Vector_51" d="M335.523 370.522L329.005 372.504C329.005 372.504 335.422 391.235 337.212 392.244L348.852 388.065L335.523 370.522Z" fill="#EAEAF2"/>
<path id="Vector_52" opacity="0.1" d="M319.997 401.119C319.997 401.119 323.925 401.794 323.853 405.73C323.782 409.666 325.471 400.641 325.471 400.641L319.997 401.119Z" fill="black"/>
<path id="Vector_53" opacity="0.1" d="M320.892 413.222C320.892 413.222 319.8 419.176 320.892 424.558C321.984 429.941 321.888 431.763 322.736 432.051C323.583 432.339 320.892 413.222 320.892 413.222Z" fill="black"/>
<path id="Vector_54" opacity="0.1" d="M371.031 412.646C370.718 412.684 370.417 412.789 370.15 412.951C369.883 413.114 369.657 413.331 369.486 413.588C369.315 413.845 369.205 414.134 369.163 414.436C369.12 414.739 369.147 415.046 369.241 415.337C369.743 417.746 371.031 412.646 371.031 412.646Z" fill="black"/>
<path id="Vector_55" opacity="0.1" d="M302.788 432.817C302.788 432.817 315.58 431.762 317.711 433.971C319.842 436.179 302.788 432.817 302.788 432.817Z" fill="black"/>
<path id="Vector_56" opacity="0.1" d="M377.002 433.653C377.002 433.653 386.355 432.54 388.546 434.08L377.002 433.653Z" fill="black"/>
<path id="Vector_57" opacity="0.1" d="M380.786 435.123C380.786 435.123 386.355 435.313 387.65 435.988L380.786 435.123Z" fill="black"/>
<path id="Vector_58" opacity="0.1" d="M381.878 437.053C381.878 437.053 386.952 436.863 387.65 437.63L381.878 437.053Z" fill="black"/>
<path id="Vector_59" opacity="0.1" d="M310.327 464.141C310.327 464.141 314.673 466.325 314.231 468.555C313.79 470.786 310.327 464.141 310.327 464.141Z" fill="black"/>
<path id="Vector_60" opacity="0.1" d="M306.567 465.201C306.567 465.201 313.198 473.506 312.297 476.244C311.396 478.981 306.567 465.201 306.567 465.201Z" fill="black"/>
<path id="Vector_61" opacity="0.1" d="M377.652 466.579C377.652 466.579 374.369 469.189 374.459 471.345L377.652 466.579Z" fill="black"/>
<path id="Vector_62" opacity="0.1" d="M301.845 518.027C301.845 518.027 301.845 520.477 306.543 524.079L301.845 518.027Z" fill="black"/>
<path id="Vector_63" opacity="0.1" d="M384.761 512.264C384.761 512.264 384.26 517.359 379.688 519.999L384.761 512.264Z" fill="black"/>
<g id="Group" opacity="0.1">
<path id="Vector_64" opacity="0.1" d="M328.407 339.342C328.407 338.945 328.335 338.536 328.299 338.132C328.223 339.012 328.251 339.898 328.383 340.772C328.424 340.296 328.432 339.819 328.407 339.342Z" fill="black"/>
<path id="Vector_65" opacity="0.1" d="M327.458 355.445C327.547 353.774 326.044 352.431 325.608 350.834C325.586 350.757 325.57 350.678 325.561 350.598C325.424 351.248 325.441 351.92 325.608 352.563C325.96 353.883 327.022 355.013 327.356 356.292C327.386 355.993 327.446 355.722 327.458 355.445Z" fill="black"/>
<path id="Vector_66" opacity="0.1" d="M369.205 348.247C368.691 349.228 367.964 350.09 367.074 350.777C365.684 352.016 363.959 353.347 362.114 352.944C359.374 352.368 358.431 348.333 355.638 348.057C352.844 347.78 350.988 351.515 348.164 351.44C346.971 351.411 345.896 350.656 344.798 350.131C342.876 349.215 339.718 348.656 337.635 349.348C334.513 350.379 333.457 353.169 331.451 355.388C330.703 356.213 329.815 356.911 328.825 357.451C328.624 357.578 328.39 357.648 328.15 357.652C328.001 357.633 327.859 357.574 327.741 357.483C327.623 357.392 327.534 357.271 327.482 357.134V357.174C327.411 357.601 327.374 358.033 327.368 358.465C327.372 358.681 327.451 358.889 327.593 359.056C327.735 359.222 327.932 359.337 328.15 359.381C328.39 359.377 328.624 359.307 328.825 359.18C329.815 358.64 330.703 357.942 331.451 357.116C333.469 354.898 334.513 352.108 337.635 351.077C339.742 350.385 342.9 350.944 344.798 351.86C345.896 352.385 346.947 353.14 348.164 353.169C350.988 353.238 352.832 349.486 355.638 349.786C358.443 350.085 359.374 354.073 362.114 354.673C363.959 355.076 365.696 353.745 367.074 352.506C367.964 351.819 368.691 350.957 369.205 349.976C369.538 349.143 369.627 348.238 369.462 347.359C369.411 347.664 369.325 347.961 369.205 348.247Z" fill="black"/>
</g>
</g>
<path id="Vector_67" opacity="0.1" d="M287.323 540.868C287.323 540.868 292.199 539.414 294.223 542.171L287.323 540.868Z" fill="black"/>
<path id="Vector_68" opacity="0.1" d="M400.298 541.444C400.298 541.444 392.222 540.988 392.539 543.099L400.298 541.444Z" fill="black"/>
</g>
<defs>
<linearGradient id="paint0_linear" x1="282.034" y1="440.863" x2="405.563" y2="440.863" gradientUnits="userSpaceOnUse">
<stop stop-color="#808080" stop-opacity="0.25"/>
<stop offset="0.54" stop-color="#808080" stop-opacity="0.12"/>
<stop offset="1" stop-color="#808080" stop-opacity="0.1"/>
</linearGradient>
</defs>
</svg>
