<svg width="122" height="143" viewBox="0 0 122 143" fill="none" xmlns="http://www.w3.org/2000/svg">
<rect width="121.875" height="143" rx="5" fill="#335990"/>
<g clip-path="url(#clip0)">
<path d="M60.3682 70.5815C65.2112 70.5815 69.4048 68.8446 72.8314 65.4175C76.2579 61.991 77.9949 57.7985 77.9949 52.9549C77.9949 48.113 76.2579 43.9199 72.8308 40.4923C69.4037 37.0664 65.2106 35.3294 60.3682 35.3294C55.5246 35.3294 51.332 37.0664 47.9055 40.4929C44.479 43.9194 42.7415 48.1125 42.7415 52.9549C42.7415 57.7985 44.479 61.9916 47.9061 65.4181C51.3331 68.844 55.5263 70.5815 60.3682 70.5815Z" fill="#AFC8ED"/>
<path d="M91.2102 91.6029C91.1114 90.1769 90.9115 88.6213 90.6172 86.9787C90.3202 85.3238 89.9377 83.7594 89.4799 82.3295C89.007 80.8516 88.3638 79.3921 87.5687 77.9934C86.7435 76.5418 85.7742 75.2777 84.6866 74.2375C83.5492 73.1493 82.1567 72.2744 80.5465 71.6362C78.9418 71.0014 77.1635 70.6798 75.2613 70.6798C74.5142 70.6798 73.7917 70.9863 72.3965 71.8948C71.5377 72.4548 70.5333 73.1024 69.4122 73.8188C68.4535 74.4296 67.1548 75.0019 65.5507 75.52C63.9857 76.0264 62.3966 76.2833 60.8283 76.2833C59.2599 76.2833 57.6714 76.0264 56.1047 75.52C54.5023 75.0024 53.2036 74.4302 52.2461 73.8193C51.1355 73.1097 50.1305 72.462 49.259 71.8942C47.8654 70.9858 47.1423 70.6793 46.3953 70.6793C44.4925 70.6793 42.7147 71.0014 41.1106 71.6368C39.5015 72.2739 38.1084 73.1488 36.97 74.2381C35.8829 75.2788 34.9131 76.5423 34.089 77.9934C33.2944 79.3921 32.6512 80.851 32.1778 82.33C31.7205 83.7599 31.338 85.3238 31.041 86.9787C30.7468 88.6191 30.5469 90.1752 30.448 91.6045C30.3509 93.0048 30.3018 94.4582 30.3018 95.926C30.3018 99.7462 31.5161 102.839 33.9108 105.12C36.276 107.37 39.4054 108.512 43.2111 108.512H78.4488C82.2545 108.512 85.3828 107.371 87.7485 105.12C90.1438 102.84 91.3581 99.7473 91.3581 95.9255C91.3576 94.4509 91.3079 92.9965 91.2102 91.6029Z" fill="#AFC8ED"/>
</g>
<path d="M87.0908 40.4545H77.5454V30.9091C77.5454 29.8553 76.6901 29 75.6363 29H74.3636C73.3098 29 72.4545 29.8553 72.4545 30.9091V40.4545H62.9091C61.8553 40.4545 61 41.3098 61 42.3636V43.6363C61 44.6901 61.8553 45.5454 62.9091 45.5454H72.4545V55.0908C72.4545 56.1447 73.3098 56.9999 74.3636 56.9999H75.6363C76.6901 56.9999 77.5454 56.1447 77.5454 55.0908V45.5454H87.0908C88.1447 45.5454 88.9999 44.6901 88.9999 43.6363V42.3636C88.9999 41.3098 88.1447 40.4545 87.0908 40.4545Z" fill="#D49313"/>
<defs>
<clipPath id="clip0">
<rect width="73.1824" height="73.1824" fill="white" transform="translate(24.2985 35.3294)"/>
</clipPath>
</defs>
</svg>
