<svg width="128" height="100" viewBox="0 0 128 100" fill="none" xmlns="http://www.w3.org/2000/svg">
<path fill-rule="evenodd" clip-rule="evenodd" d="M34.2042 90.46C28.8969 88.46 21.092 81.76 18.5944 77.16C13.9115 68.36 13.9115 67.56 17.97 29.56C19.6351 13.96 20.3635 12.06 24.9424 12.06C28.6887 12.06 30.2497 14.96 29.7294 21.16C29.5213 24.46 29.6253 26.66 30.0416 26.26C30.4578 25.86 32.7473 21.96 35.1408 17.56C37.6383 13.16 40.1359 9.15998 40.7603 8.75998C43.1538 7.25998 46.5879 8.05998 48.253 10.46C49.918 12.86 49.8139 13.26 47.3164 17.96C45.7554 20.76 44.6107 23.26 44.6107 23.56C44.6107 23.86 48.1489 21.16 52.6237 17.56C61.157 10.66 63.8627 9.75998 66.8806 12.96C69.8985 16.16 68.1294 19.16 59.0757 26.46L50.6465 33.36L56.1619 35.36C62.4058 37.56 72.0839 46.16 73.2286 50.46C73.6448 51.96 73.4367 54.26 72.8123 55.66C71.8757 57.66 70.9391 58.06 68.3375 57.86C65.7359 57.56 64.279 56.46 61.7814 53.06C50.8546 37.86 27.6481 43.26 26.0871 61.36C25.0465 73.26 36.2855 83.16 48.357 81.06C54.0806 80.06 56.266 78.76 61.4692 72.86C65.5278 68.36 66.4643 67.76 68.8578 68.36C75.518 69.96 74.4774 76.16 66.2562 83.86C58.2432 91.26 44.0904 94.26 34.2042 90.46Z" fill="#1D3557"/>
<path fill-rule="evenodd" clip-rule="evenodd" d="M36.9839 73.4599C30.1156 68.2599 30.3237 56.2599 37.4002 52.0599C40.6262 50.0599 47.2863 49.8599 51.0327 51.5599C52.9059 52.3599 55.4034 54.8599 56.7563 57.0599L59.0457 61.0599H86.1026H113.16L112.847 63.2599C112.535 64.8599 111.703 65.5599 109.621 65.8599C107.332 66.0599 106.707 66.7599 106.187 69.5599C105.771 71.4599 104.942 72.2599 104.421 72.5599C102.421 73.0599 100.464 71.8599 100.568 68.9599C100.568 67.0599 99.8392 66.0599 98.3823 65.6599C96.5091 65.2599 96.1969 65.5599 96.405 67.8599C96.7172 72.3599 95.6595 72.0599 94.1595 72.5599C91.1595 72.5599 91.2018 71.1599 91.2018 67.9599C91.2018 66.1599 90.2652 66.0599 75.592 66.0599C59.3579 66.0599 56.8603 66.3599 56.8603 68.5599C56.8603 69.2599 55.1953 71.0599 53.218 72.4599C48.8473 75.4599 40.418 75.9599 36.9839 73.4599Z" fill="#D49313"/>
</svg>
