<svg width="440" height="388" viewBox="0 0 440 388" fill="none" xmlns="http://www.w3.org/2000/svg">
<g id="artform">
<g id="form-area">
<g id="form-body">
<mask id="path-1-inside-1" fill="white">
<path d="M343.626 0H82.9443V335.66H343.626V0Z"/>
</mask>
<path d="M343.626 0H82.9443V335.66H343.626V0Z" fill="#1D3357" stroke="#D4BAFF" stroke-width="2" mask="url(#path-1-inside-1)"/>
</g>
<g id="form-lines">
<path id="Vector" d="M277.205 60.7605H144.118V62.2577H277.205V60.7605Z" fill="#D4BAFF"/>
<path id="Vector_2" d="M277.205 71.241H144.118V72.7382H277.205V71.241Z" fill="#D4BAFF"/>
<path id="Vector_3" d="M277.205 81.7213H144.118V83.2184H277.205V81.7213Z" fill="#D4BAFF"/>
<path id="Vector_4" d="M277.205 138.812H144.118V140.309H277.205V138.812Z" fill="#D4BAFF"/>
<path id="Vector_5" d="M277.205 149.292H144.118V150.789H277.205V149.292Z" fill="#D4BAFF"/>
<path id="Vector_6" d="M277.205 159.772H144.118V161.27H277.205V159.772Z" fill="#D4BAFF"/>
<path id="Vector_7" d="M277.205 186.267H144.118V187.764H277.205V186.267Z" fill="#D4BAFF"/>
<path id="Vector_8" d="M277.205 196.747H144.118V198.244H277.205V196.747Z" fill="#D4BAFF"/>
<path id="Vector_9" d="M277.205 207.227H144.118V208.725H277.205V207.227Z" fill="#D4BAFF"/>
<path id="Vector_10" d="M277.205 233.722H144.118V235.219H277.205V233.722Z" fill="#D4BAFF"/>
<path id="Vector_11" d="M277.205 244.202H144.118V245.699H277.205V244.202Z" fill="#D4BAFF"/>
<path id="Vector_12" d="M277.205 254.682H144.118V256.18H277.205V254.682Z" fill="#D4BAFF"/>
<path id="Vector_13" d="M277.205 281.177H144.118V282.674H277.205V281.177Z" fill="#D4BAFF"/>
<path id="Vector_14" d="M277.205 291.657H144.118V293.154H277.205V291.657Z" fill="#D4BAFF"/>
<path id="Vector_15" d="M277.205 302.138H144.118V303.635H277.205V302.138Z" fill="#D4BAFF"/>
</g>
<path id="Vector_16" d="M299.971 16.2346C299.972 14.8108 300.346 13.4121 301.058 12.1793C301.77 10.9466 302.793 9.92317 304.025 9.21212C302.793 8.49684 301.394 8.11924 299.97 8.11732C298.545 8.1154 297.146 8.48923 295.911 9.20118C294.677 9.91313 293.652 10.9381 292.939 12.1728C292.227 13.4075 291.852 14.8085 291.852 16.2346C291.852 17.6607 292.227 19.0617 292.939 20.2964C293.652 21.5312 294.677 22.5561 295.911 23.2681C297.146 23.98 298.545 24.3538 299.97 24.3519C301.394 24.35 302.793 23.9724 304.025 23.2571C302.793 22.5461 301.77 21.5227 301.058 20.2899C300.346 19.0571 299.972 17.6585 299.971 16.2346Z" fill="#3F3D56"/>
<path id="Vector_17" d="M310.573 16.2346C310.574 14.8108 310.948 13.4121 311.66 12.1793C312.372 10.9466 313.395 9.92317 314.627 9.21212C313.395 8.49684 311.996 8.11924 310.572 8.11732C309.147 8.1154 307.748 8.48923 306.513 9.20118C305.279 9.91313 304.254 10.9381 303.541 12.1728C302.829 13.4075 302.453 14.8085 302.453 16.2346C302.453 17.6607 302.829 19.0617 303.541 20.2964C304.254 21.5312 305.279 22.5561 306.513 23.2681C307.748 23.98 309.147 24.3538 310.572 24.3519C311.996 24.35 313.395 23.9724 314.627 23.2571C313.395 22.5461 312.372 21.5227 311.66 20.2899C310.948 19.0571 310.574 17.6585 310.573 16.2346Z" fill="#1D3357"/>
<path id="Vector_18" d="M321.175 24.3519C325.653 24.3519 329.283 20.7177 329.283 16.2346C329.283 11.7516 325.653 8.11731 321.175 8.11731C316.698 8.11731 313.068 11.7516 313.068 16.2346C313.068 20.7177 316.698 24.3519 321.175 24.3519Z" fill="#3F3D56"/>
</g>
<g id="woman-form-first">
<path id="Vector_19" d="M134.707 87.4172C134.704 99.6086 131.403 111.571 125.153 122.035C118.904 132.498 109.941 141.071 99.2152 146.842C98.4106 147.279 97.5937 147.698 96.7642 148.097C87.56 152.561 77.4624 154.872 67.2351 154.853C57.0078 154.835 46.9185 152.488 37.7303 147.991C36.1463 147.217 34.5996 146.38 33.0904 145.481C31.5563 144.582 30.0658 143.614 28.6189 142.59C19.1041 135.892 11.4836 126.841 6.49914 116.319C1.51469 105.797 -0.663808 94.1624 0.175726 82.5472C1.01526 70.9321 4.84421 59.7325 11.2898 50.0386C17.7355 40.3448 26.5781 32.4871 36.957 27.2305C41.0567 25.1441 45.3623 23.4909 49.804 22.2977C51.7623 21.7669 53.7538 21.3257 55.7785 20.9739C59.6011 20.3102 63.4737 19.978 67.3533 19.9811C68.1516 19.9811 68.9436 19.9936 69.7356 20.0311C70.3156 20.0435 70.8956 20.0685 71.4756 20.106C77.5387 20.4688 83.5245 21.6557 89.2681 23.6339C89.7608 23.8025 90.2534 23.9773 90.7399 24.1584C92.4362 24.7828 94.0951 25.478 95.7166 26.2439C107.365 31.6568 117.225 40.2917 124.133 51.1304C131.041 61.9691 134.71 74.5596 134.707 87.4172Z" fill="#3F3D56"/>
<path id="Vector_20" d="M93.6425 18.4575C87.5147 3.98115 71.916 1.24714 71.916 1.24714C71.916 1.24714 56.8967 -2.76461 44.3536 16.3412C32.6624 34.1493 17.5859 50.834 36.7059 57.9421L41.7564 47.3221L42.3623 59.544C45.1426 60.1238 47.9526 60.5507 50.7795 60.823C71.9872 62.9801 91.9788 66.5668 92.3491 58.8931C92.8413 48.6919 99.5387 32.3867 93.6425 18.4575Z" fill="#2F2E41"/>
<path id="Vector_21" d="M39.1772 136.44L38.6783 140.448L37.7303 147.991C36.1463 147.217 34.5997 146.38 33.0905 145.481C31.5563 144.582 30.0658 143.614 28.619 142.59L28.7686 138.7L28.937 134.385L35.8594 135.778L39.1772 136.44Z" fill="#FFB8B8"/>
<path id="Vector_22" d="M108.857 140.536C105.828 142.909 102.603 145.019 99.2152 146.842L95.9473 135.509L95.517 134.017L94.4443 130.289L95.5981 130.108L107.41 128.241L107.79 131.457L108.857 140.536Z" fill="#FFB8B8"/>
<path id="Vector_23" d="M71.9264 48.3084C82.101 48.3084 90.3492 40.0501 90.3492 29.863C90.3492 19.6758 82.101 11.4175 71.9264 11.4175C61.7518 11.4175 53.5036 19.6758 53.5036 29.863C53.5036 40.0501 61.7518 48.3084 71.9264 48.3084Z" fill="#FFB8B8"/>
<path id="Vector_24" d="M59.3034 37.0361C59.3034 37.0361 60.668 60.2638 56.5741 61.6301C52.4801 62.9964 77.7262 61.6301 77.7262 61.6301C77.7262 61.6301 74.3145 47.2836 77.7262 43.1846C81.1378 39.0856 59.3034 37.0361 59.3034 37.0361Z" fill="#FFB8B8"/>
<path id="Vector_25" d="M78.0674 57.8728C78.0674 57.8728 60.3269 56.5064 56.9152 57.8728C53.5036 59.2391 43.951 66.0707 43.951 66.0707L48.7273 109.11L87.6199 117.308L93.7609 108.427L99.9018 95.4469L97.1725 79.0509L96.4902 69.4866L78.0674 57.8728Z" fill="#D0CDE1"/>
<path id="Vector_26" d="M40.5394 68.8035C40.5394 68.8035 31.6691 70.853 30.9868 77.6846C30.3045 84.5163 30.3045 101.595 30.9868 104.328C31.6691 107.061 30.9868 108.427 30.3045 109.11C29.6222 109.793 28.2575 108.427 29.6222 110.477C30.9868 112.526 30.9868 112.526 30.3045 114.576C29.6222 116.625 27.5752 113.892 28.9398 117.308C30.3045 120.724 30.9868 121.407 30.3045 122.09C29.6222 122.774 27.5752 138.486 27.5752 138.486L39.1747 140.536L50.7743 100.229L40.5394 68.8035Z" fill="#D0CDE1"/>
<path id="Vector_27" d="M93.7609 68.8035C95.0567 68.8759 96.3095 69.2942 97.3894 70.0149C98.4692 70.7357 99.3367 71.7327 99.9018 72.9025C101.949 77.0015 107.407 103.645 106.725 105.694C106.043 107.744 104.678 105.011 106.043 109.11C107.407 113.209 106.043 112.526 106.725 115.259C107.407 117.991 103.996 115.259 106.725 117.991C109.454 120.724 110.819 121.407 109.454 122.774C108.09 124.14 106.043 121.407 108.09 124.14C110.137 126.873 110.137 130.972 110.137 130.972L93.7609 134.387L88.9846 96.1301L93.7609 68.8035Z" fill="#D0CDE1"/>
<path id="Vector_28" d="M95.9473 135.509L96.7642 148.097C87.56 152.561 77.4624 154.872 67.2351 154.853C57.0078 154.835 46.9185 152.488 37.7303 147.991C36.1463 147.217 34.5997 146.38 33.0905 145.481C33.6143 143.552 34.1444 141.628 34.687 139.743C35.0736 138.4 35.4645 137.079 35.8594 135.778C38.9215 125.743 42.2206 117.208 45.3138 113.892C45.3138 113.892 45.3138 106.38 46.6796 105.694C47.3361 105.179 47.8369 104.491 48.1265 103.708C48.6349 102.58 49.0641 101.418 49.4112 100.23L47.1536 94.9725L37.0506 71.4198C36.763 70.7462 36.7429 69.988 36.9943 69.3C37.2458 68.6119 37.7499 68.0458 38.4039 67.7171L41.7528 66.0374C42.0921 65.8688 42.4614 65.7689 42.8393 65.7436C43.2173 65.7183 43.5965 65.768 43.9552 65.8898C44.3139 66.0117 44.645 66.2033 44.9296 66.4536C45.2141 66.704 45.4464 67.0082 45.6132 67.3487L61.0109 98.8626L78.0675 109.796L90.0289 104.47L90.347 104.326C90.347 104.326 99.2214 90.6641 96.4898 83.8331C95.3236 80.9171 94.0389 77.0208 92.9351 73.5054C92.2927 71.4323 91.719 69.4904 91.27 67.9669C91.1992 67.7249 91.2046 67.4669 91.2852 67.2281C91.3659 66.9892 91.5181 66.781 91.721 66.6317C91.9239 66.4823 92.1679 66.3991 92.4196 66.3934C92.6714 66.3876 92.9189 66.4595 93.1284 66.5994L95.4546 68.1542C95.9819 68.5083 96.399 69.0038 96.6582 69.5841C96.7659 69.8108 96.8455 70.0498 96.8952 70.2959L101.947 94.7665L95.1241 109.109V122.771L95.598 130.108L95.8475 133.948L95.9473 135.509Z" fill="#2F2E41"/>
<path id="Vector_29" d="M90.178 13.1981L74.5452 4.99963L52.9572 8.35333L48.4907 28.1046L59.609 27.6769L62.7154 20.42V27.557L67.8454 27.3597L70.8233 15.8069L72.6843 28.1046L90.9227 27.7325L90.178 13.1981Z" fill="#2F2E41"/>
<path id="Vector_30" d="M53.1625 33.4496C54.293 33.4496 55.2094 31.8438 55.2094 29.863C55.2094 27.8822 54.293 26.2764 53.1625 26.2764C52.0319 26.2764 51.1155 27.8822 51.1155 29.863C51.1155 31.8438 52.0319 33.4496 53.1625 33.4496Z" fill="#FFB8B8"/>
</g>
<g id="woman-form-second">
<path id="Vector_31" d="M423.817 198.078C423.817 228.007 403.625 253.338 375.799 261.814C371.69 263.074 367.473 263.943 363.201 264.411C360.593 264.704 357.971 264.85 355.346 264.85C354.37 264.85 353.4 264.831 352.436 264.782H352.424C342.634 264.4 333.036 261.948 324.262 257.585C318.098 254.52 312.43 250.543 307.448 245.789C300.959 239.655 295.787 232.26 292.25 224.056C288.713 215.853 286.884 207.013 286.875 198.078C286.875 169.78 304.925 145.593 330.411 135.874C333.461 134.707 336.59 133.761 339.775 133.043C351.512 130.388 363.731 130.781 375.273 134.186C376.148 134.434 377.016 134.712 377.872 135.009C377.878 135.009 377.885 135.015 377.891 135.015C379.95 135.708 381.973 136.505 383.952 137.401C384.63 137.698 385.309 138.014 385.974 138.347C387.306 138.99 388.612 139.681 389.892 140.419C390.387 140.697 390.875 140.981 391.357 141.278C399.222 146.017 406.048 152.301 411.423 159.752C416.312 166.525 419.862 174.172 421.884 182.281C423.173 187.447 423.823 192.753 423.817 198.078Z" fill="#1D3357"/>
<path id="Vector_32" d="M429.224 89.7555L438.597 86.9055L439.406 78.8551C439.406 78.8551 416.608 70.457 409.319 85.3117C406.746 90.5567 403.502 93.7067 400.383 95.5871C398.229 96.8342 395.827 97.5889 393.348 97.7971C390.869 98.0053 388.375 97.6619 386.044 96.7913C370.244 91.1641 366.523 107.167 366.523 107.167C366.523 107.167 367.889 109.445 377.629 110.005C382.476 110.283 386.442 113.84 389.203 117.344C395.117 124.845 407.263 122.677 410.245 113.674C410.293 113.528 410.341 113.381 410.387 113.233C415.046 98.3489 436.257 110.199 436.257 110.199L437.611 96.7184L429.224 89.7555Z" fill="#2F2E41"/>
<path id="Vector_33" d="M365.356 126.188C371.696 126.188 376.836 121.175 376.836 114.992C376.836 108.809 371.696 103.797 365.356 103.797C359.016 103.797 353.876 108.809 353.876 114.992C353.876 121.175 359.016 126.188 365.356 126.188Z" fill="#2F2E41"/>
<path id="Vector_34" d="M359.616 174.702C376.524 174.702 390.23 161.335 390.23 144.847C390.23 128.359 376.524 114.992 359.616 114.992C342.708 114.992 329.001 128.359 329.001 144.847C329.001 161.335 342.708 174.702 359.616 174.702Z" fill="#2F2E41"/>
<path id="Vector_35" d="M358.659 176.257C370.283 176.257 379.707 167.067 379.707 155.732C379.707 144.396 370.283 135.206 358.659 135.206C347.035 135.206 337.612 144.396 337.612 155.732C337.612 167.067 347.035 176.257 358.659 176.257Z" fill="#A0616A"/>
<path id="Vector_36" d="M350.368 171.281L354.195 191.184L373.329 188.696C373.329 188.696 370.14 173.147 372.053 168.793L350.368 171.281Z" fill="#A0616A"/>
<path id="Vector_37" d="M387.998 127.743C387.998 127.743 372.691 116.547 366.313 120.901C359.935 125.255 383.533 139.56 386.084 138.316C388.636 137.072 387.998 127.743 387.998 127.743Z" fill="#A0616A"/>
<path id="Vector_38" d="M402.667 212.328C402.669 212.432 402.665 212.535 402.655 212.637V212.644C402.262 221.534 385.48 248.744 375.799 261.814C371.69 263.073 367.473 263.943 363.201 264.411C360.593 264.704 357.971 264.85 355.346 264.85C354.37 264.85 353.4 264.831 352.436 264.782H352.423C343.51 261.975 332.922 258.29 325.2 255.384C321.561 254.005 318.556 252.806 316.666 251.953C315.963 251.664 315.288 251.31 314.65 250.895C311.461 248.404 318.479 246.537 321.668 245.918C324.857 245.294 320.394 238.456 320.394 238.456C308.913 226.635 322.943 216.687 322.943 216.687C322.943 216.687 328.68 204.866 328.68 201.756C328.696 201.525 328.782 201.305 328.928 201.125C331.331 197.812 350.369 191.808 350.369 191.808V181.854L352.341 181.533L371.741 178.38L373.326 178.12L376.515 183.097L390.552 184.964C390.552 184.964 402.667 201.138 402.667 212.328Z" fill="#D0CDE1"/>
<path id="Vector_39" d="M342.077 212.328C342.077 212.328 333.67 235.056 325.992 253.474C325.726 254.117 325.46 254.753 325.2 255.384C324.883 256.126 324.572 256.862 324.261 257.585C318.098 254.52 312.43 250.543 307.448 245.789C310.897 234.852 316.368 217.472 318.479 210.468C320.806 202.745 326.189 201.33 328.928 201.126C329.483 201.074 330.041 201.078 330.595 201.138L342.077 212.328Z" fill="#D0CDE1"/>
<path id="Vector_40" d="M388.636 186.83L390.549 184.964C390.549 184.964 414.785 159.463 414.148 153.244C414.148 153.244 401.392 137.694 385.447 142.048C385.447 142.048 378.431 125.255 389.273 125.877C400.116 126.499 440.297 124.011 439.66 142.048C439.022 160.085 400.754 215.441 400.754 215.441L388.636 186.83Z" fill="#D0CDE1"/>
<path id="Vector_41" d="M379.609 146.28C381.812 139.392 374.646 130.939 363.603 127.399C352.561 123.86 341.825 126.575 339.622 133.463C337.42 140.351 344.586 148.804 355.628 152.343C366.67 155.882 377.407 153.168 379.609 146.28Z" fill="#2F2E41"/>
<path id="Vector_42" d="M363.201 264.411C360.593 264.704 357.971 264.85 355.346 264.85C354.37 264.85 353.4 264.831 352.436 264.782H352.423C342.634 264.4 333.036 261.948 324.262 257.585C321.471 256.198 318.779 254.622 316.203 252.868L316.666 251.953V251.947L317.205 250.896L325.992 253.474L363.201 264.411Z" fill="#2F2E41"/>
</g>
<g id="man-form">
<path id="Vector_43" d="M1.66712 320.225C1.6659 323.691 1.92859 327.152 2.4529 330.578C4.97345 346.763 13.2853 361.479 25.8395 371.982C26.1825 372.27 26.5317 372.557 26.8872 372.838C27.6231 373.431 28.3714 374.008 29.1323 374.568C30.2299 375.379 31.3525 376.156 32.5 376.897C41.521 382.716 51.7984 386.297 62.4788 387.341C73.1593 388.386 83.9346 386.865 93.9099 382.903C94.3839 382.716 94.8578 382.522 95.3256 382.323C96.074 382.004 96.8098 381.673 97.5457 381.324C99.4104 380.456 101.229 379.5 103.003 378.458C104.83 377.39 106.597 376.241 108.304 375.011C109.083 374.449 109.838 373.881 110.592 373.287L110.605 373.281C120.583 365.435 128.152 354.933 132.445 342.979V342.972C137.575 328.59 137.684 312.892 132.755 298.439C127.825 283.987 118.149 271.634 105.304 263.398C104.711 263.023 104.113 262.648 103.508 262.299C102.884 261.912 102.248 261.549 101.606 261.2C92.9606 256.397 83.3584 253.575 73.4919 252.939C72.0139 252.839 70.5234 252.789 69.0204 252.789C68.9456 252.789 68.8707 252.789 68.7959 252.795C66.7753 252.795 64.7796 252.889 62.8089 253.076C46.0924 254.626 30.5566 262.371 19.2463 274.792C7.93607 287.214 1.66675 303.417 1.66712 320.225Z" fill="#3F3D56"/>
<path id="Vector_44" d="M138.439 343.384C138.439 343.384 158.11 323.032 163.356 335.505C168.601 347.979 143.684 354.544 143.684 354.544L138.439 343.384Z" fill="#FFB8B8"/>
<path id="Vector_45" d="M26.8872 372.838C27.6231 373.431 28.3715 374.008 29.1323 374.568C30.2299 375.379 31.3525 376.156 32.5 376.897C41.521 382.716 51.7984 386.297 62.4789 387.341C73.1593 388.386 83.9346 386.865 93.9099 382.903C94.3839 382.716 94.8579 382.523 95.3256 382.323C96.074 382.004 96.8099 381.673 97.5458 381.324L95.8183 378.838C94.5658 377.665 93.1627 376.663 91.6462 375.86C79.8282 369.435 57.5704 369.635 42.5095 370.69C40.3641 370.84 38.3685 371.008 36.5724 371.177C35.4498 371.277 34.4021 371.383 33.4479 371.483C33.0613 371.527 32.6933 371.564 32.3441 371.602C28.9827 371.976 26.9683 372.27 26.9683 372.27L26.8872 372.838Z" fill="#2F2E41"/>
<path id="Vector_46" d="M84.6854 281.803C95.0922 281.803 103.529 273.357 103.529 262.937C103.529 252.517 95.0922 244.071 84.6854 244.071C74.2786 244.071 65.8422 252.517 65.8422 262.937C65.8422 273.357 74.2786 281.803 84.6854 281.803Z" fill="#FFB8B8"/>
<path id="Vector_47" d="M72.2125 269.198L58.4427 283.641L54.5084 305.962L89.2608 311.871L86.638 291.519C86.638 291.519 87.2937 281.671 89.9165 279.702C92.5394 277.732 72.2125 269.198 72.2125 269.198Z" fill="#FFB8B8"/>
<path id="Vector_48" d="M31.5582 374.243C32.7078 373.873 33.8755 373.562 35.0569 373.312C38.0298 372.665 41.0534 372.279 44.0934 372.157C51.2876 371.778 58.4651 373.169 64.9979 376.21C74.5521 380.799 85.8899 382.048 93.6854 382.285C94.2529 382.304 94.8017 382.316 95.3256 382.323C96.0739 382.004 96.8098 381.673 97.5457 381.323C99.4104 380.456 101.229 379.5 103.003 378.457L102.978 376.147L102.566 330.44V330.434L102.373 308.586L89.9186 294.144L86.7193 290.534L85.1976 291.902L76.1486 300.057L62.9586 287.825L58.4434 283.641L36.7843 356.641L33.9904 366.057L32.344 371.601L32.0883 372.451V372.457L31.5582 374.243Z" fill="#575A89"/>
<path id="Vector_49" d="M81.8799 310.615C81.9113 313.895 82.1865 317.168 82.7031 320.406C84.9482 334.761 86.8753 358.626 91.6461 375.86C92.2698 378.133 92.9495 380.281 93.6854 382.285L93.9099 382.903C94.3839 382.716 94.8579 382.522 95.3256 382.323C96.074 382.004 96.8099 381.673 97.5458 381.323C99.4105 380.456 101.229 379.5 103.003 378.457C104.83 377.39 106.597 376.241 108.304 375.011L108.104 374.224V374.218L104.998 361.767C104.998 361.767 106.994 351.346 108.59 339.688V339.682C110.424 326.338 111.734 311.39 108.933 308.586L86.9626 288.461L86.9563 288.468C86.2718 289.559 85.6834 290.708 85.1977 291.902C83.7009 295.455 81.8051 301.724 81.8799 310.615Z" fill="#D0CDE1"/>
<path id="Vector_50" d="M13.5226 358.439C16.994 363.493 21.1379 368.05 25.8395 371.982C26.1825 372.27 26.5317 372.557 26.8872 372.838C27.6231 373.431 28.3715 374.008 29.1323 374.567C30.2299 375.379 31.3525 376.156 32.5 376.896C33.3481 375.716 34.2025 374.518 35.0569 373.312C35.5621 372.607 36.0672 371.895 36.5724 371.177C37.3706 370.04 38.1689 368.898 38.9547 367.749C39.0545 367.612 39.148 367.474 39.2416 367.337C40.2394 365.894 41.2247 364.446 42.1851 363.003C49.2697 352.407 55.1444 342.236 55.8179 336.16C56.6287 328.886 58.2688 317.634 59.934 306.888C61.0066 299.907 62.0918 293.138 62.9586 287.825C64.0064 281.368 64.7298 277.047 64.7298 277.047C64.7298 277.047 30.3671 273.607 25.5526 276.985H25.5464C25.4082 277.064 25.2884 277.172 25.1949 277.301C25.1014 277.43 25.0362 277.578 25.0038 277.734C24.48 281.393 27.2864 315.398 28.4463 329.135V329.142C28.7457 332.663 28.939 334.849 28.939 334.849C28.939 334.849 26.9745 337.478 24.0933 341.692C21.156 345.994 17.2582 351.945 13.5226 358.439Z" fill="#D0CDE1"/>
<path id="Vector_51" d="M106.965 326.971L110.243 352.575L139.095 340.101L148.274 359.14L101.064 376.866C101.064 376.866 92.5394 331.566 106.965 326.971Z" fill="#D0CDE1"/>
<path id="Vector_52" d="M103.512 266.389C103.512 266.389 106.072 263.621 105.813 260.155C105.643 258.183 105.768 256.197 106.187 254.263C106.187 254.263 105.386 248.59 104.202 245.302C103.019 242.014 104.016 240.87 98.9296 239.075C93.8428 237.28 97.0811 230.788 82.0837 235.962C81.5133 236.539 80.7851 236.934 79.991 237.096C79.1968 237.259 78.3723 237.182 77.6215 236.876C74.8527 235.861 73.1841 239.67 73.1841 239.67C73.1841 239.67 71.4571 238.251 70.488 239.726C69.5189 241.201 64.8318 237.839 63.1131 248.57C61.3944 259.3 67.2947 268.869 67.2947 268.869C67.2947 268.869 68.1226 251.698 77.8625 251.387C87.6024 251.075 98.617 247.381 99.9831 254.612C100.697 258.662 101.881 262.615 103.512 266.389Z" fill="#2F2E41"/>
<path id="Vector_53" d="M25.8395 371.982C26.1825 372.27 26.5317 372.557 26.8872 372.838C27.6231 373.431 28.3715 374.008 29.1323 374.567C30.2299 375.379 31.3525 376.156 32.5 376.897C38.0255 380.476 44.0482 383.22 50.3735 385.039C51.9202 381.068 48.2157 376.128 44.0935 372.157C43.5696 371.651 43.0333 371.158 42.5094 370.69C41.2622 369.585 40.0336 368.586 38.9547 367.749C38.9048 367.711 38.8611 367.68 38.8175 367.643C36.7782 366.069 35.3002 365.101 35.3002 365.101L33.9905 366.057L25.8395 371.982Z" fill="#FFB8B8"/>
<path id="Vector_54" d="M2.45392 330.578C4.97447 346.763 13.2863 361.479 25.8405 371.982C26.1835 372.27 26.5327 372.557 26.8882 372.838C27.6241 373.431 28.3725 374.008 29.1333 374.567L32.0894 372.457V372.451L33.4489 371.483L38.8185 367.643L39.2425 367.337L43.3648 364.39L42.1861 363.003L36.7854 356.641L24.0943 341.692L21.0696 338.133L28.4473 329.142V329.135L36.1493 319.751L29.5948 277.734C28.3535 277.083 26.9453 276.822 25.5536 276.985H25.5474C24.0631 277.241 22.5477 278.265 21.7244 281.012C20.2339 285.989 8.19766 316.229 2.45392 330.578Z" fill="#D0CDE1"/>
</g>
</g>
</svg>
