<svg width="209" height="533" viewBox="0 0 209 533" fill="none" xmlns="http://www.w3.org/2000/svg">
<g id="businessman">
<path id="Vector" d="M208.569 145.999C208.569 145.999 201.703 133.063 202.63 129.217C203.556 125.372 197.8 117.158 197.8 117.158L198.172 103.532C198.172 103.532 197.377 104.925 193.232 106.145C192.882 105.706 192.503 105.274 192.109 104.863C190.608 103.371 188.939 102.041 187.133 100.899L179.837 85.8655L172.781 75.5484C172.781 75.5484 161.654 53.9526 150.163 49.1877L148.353 45.809C148.413 45.7754 148.457 45.7217 148.478 45.6586C148.498 45.5954 148.493 45.5273 148.463 45.4676L146.624 42.0332C146.591 41.9738 146.537 41.9281 146.471 41.905C146.405 41.8818 146.332 41.8828 146.267 41.9078L144.508 38.6197C143.837 34.3585 142.083 30.319 139.401 26.8535C139.219 26.6097 139.022 26.3868 138.832 26.1569L141.692 26.0593C144.202 25.9688 147.004 25.7598 148.689 23.9694C149.293 23.3021 149.739 22.5179 149.995 21.6705C150.212 21.0065 150.354 20.3222 150.418 19.6294C150.418 19.5249 150.418 19.4204 150.418 19.3229C150.418 19.086 150.418 18.8538 150.418 18.6262C150.418 18.4381 150.418 18.257 150.418 18.0689C150.418 17.8808 150.418 17.7694 150.418 17.6231C150.418 17.4768 150.338 17.1424 150.294 16.9264C150.294 16.8359 150.294 16.7453 150.236 16.6547C150.175 16.3818 150.1 16.1121 150.01 15.8467C149.988 15.7946 149.971 15.741 149.959 15.6864C149.856 15.4078 149.747 15.1291 149.623 14.8574C149.603 14.8216 149.586 14.7843 149.572 14.746C149.441 14.4743 149.295 14.2096 149.141 13.9518L149.098 13.8682C149.044 13.7601 148.983 13.6554 148.915 13.5547C146.938 10.587 143.465 8.85242 140.16 7.28499C137.076 5.73672 133.91 4.34159 130.675 3.10517C118.647 -1.20172 105.36 -1.02263 93.4642 3.60675C92.2893 4.03154 91.1761 4.59809 90.1517 5.29261C88.7239 6.44658 87.5039 7.81621 86.5401 9.34704L80.8856 17.3235C80.0954 18.2938 79.4768 19.381 79.0542 20.542C77.9963 24.3317 81.3161 28.1283 80.9439 32.0365C80.7542 33.9801 79.6598 35.7635 79.4482 37.7071C79.1783 40.215 80.3967 42.6323 81.586 44.8964L89.6775 60.2224C89.247 62.2356 88.7728 64.2977 88.2547 66.2901C84.5264 69.9683 83.2714 71.9746 82.9285 73.0614L82.8191 73.1171C82.0807 73.5724 81.4455 74.1646 80.9513 74.8587L73.2611 81.9922C73.2611 81.9922 59.8944 85.3082 57.1146 89.5089C57.1146 89.5089 36.138 88.6312 36.3204 116.601C36.3204 116.601 35.3938 127.092 34.8612 128.493C34.3286 129.893 34.8612 144.049 34.8612 144.049L34.6131 172.722C34.6131 172.722 33.8106 187.93 34.6131 193.35C35.4157 198.769 36.3423 219.397 36.3423 219.397C36.3423 219.397 41.3548 239.502 39.5016 246.67C37.7213 253.532 39.5016 268.537 42.4201 268.6C42.9746 269.694 43.6093 270.23 44.3025 269.924C44.6042 269.799 44.9137 269.692 45.2291 269.603V286.734C45.2291 286.734 41.6175 310.733 45.6669 315.296C42.9819 318.946 39.8299 325.174 39.0273 326.811L10.6451 325.355L7.03354 326.323L3.72106 327.208L1.71461 371.284L2.51719 371.34L2.45881 372.685L4.35583 372.817L1.71461 417.207L41.0046 420.293C39.2754 423.992 37.269 427.956 36.4883 428.339C35.029 429.035 31.8479 426.945 31.1037 427.809C30.3595 428.673 28.1341 429.732 25.5367 429.203C22.9392 428.673 21.2684 431.474 21.2684 431.474C21.2684 431.474 21.6478 431.794 22.2169 432.386C17.9997 431.899 12.6662 434.058 9.76961 435.451C8.47089 436.078 7.661 436.545 7.661 436.545H0L4.20992 462.188L7.17945 464.125L7.90907 484.327C7.90907 484.327 19.7873 519.292 25.2302 519.062C25.5837 519.05 25.9302 518.965 26.2462 518.814C26.5623 518.662 26.8404 518.447 27.0616 518.184C29.98 514.965 27.959 503.91 27.959 503.91V485.505C27.959 485.505 32.4097 483.638 31.9136 482.237C31.4174 480.837 39.093 465.518 39.7789 464.125C39.7985 464.113 39.8143 464.097 39.8246 464.077C39.8349 464.057 39.8393 464.035 39.8372 464.014C39.8372 462.439 43.1789 460.691 42.9892 459.994C42.7995 459.297 51.1609 454.922 51.7446 451.077C52.3283 447.232 57.8661 449.328 57.8661 449.328L64.9142 441.596C65.1258 451.021 65.5271 457.618 66.2202 459.29C69.5619 467.336 70.8606 479.925 70.8606 479.925C70.8606 479.925 68.8177 489.538 70.8606 492.687C72.1156 494.61 75.034 496.672 77.0624 498.379C74.9538 504.481 75.2529 517.452 75.2529 517.452V524.906L90.8449 529.086C90.8449 529.086 91.3337 525.359 92.0779 525.359C92.8222 525.359 102.723 532.583 102.723 532.583C102.723 532.583 140.838 533.05 150.484 532.583C154.132 532.409 155.124 530.911 154.563 529.1C153.636 526.084 148.434 522.176 143.808 521.876C136.38 521.409 126.976 513.955 126.976 513.955C126.976 513.955 127.705 512.318 123.758 509.991C121.029 508.389 113.478 501.904 108.808 498.107C109.027 497.821 109.253 497.536 109.465 497.229C109.465 497.229 103.154 488.869 104.46 485.163C105.766 481.457 103.898 476.107 103.898 476.107C103.898 476.107 100.374 465.79 100.374 460.544C100.374 457.221 99.8484 438.322 99.469 424.918L102.723 425.176L102.789 423.839L104.248 423.964L118.045 425.176L117.622 411.097C124.269 408.31 129.799 405.726 132.09 404.075C139.883 398.502 146.566 398.133 146.566 398.133C146.566 398.133 162.34 390.093 164.755 386.771C167.17 383.448 166.944 359.323 166.944 359.323L165.645 307.619V307.577C165.645 307.577 164.536 282.582 162.304 277.162C161.487 275.155 159.466 268.468 157.255 260.833C158.525 260.708 159.808 260.759 161.063 260.986C161.144 262.853 161.195 264.135 161.195 264.574C161.195 267.541 165.645 270.063 165.645 270.063L162.493 203.186V157.689C172.212 160.642 195.713 161.562 195.713 161.562C212.648 160.712 208.569 145.999 208.569 145.999ZM116.9 88.5406H116.849C117.194 86.7873 117.644 85.0544 118.198 83.3507L116.9 88.5406ZM53.1163 317.922C58.873 318.828 65.5198 318.563 66.0233 317.497C66.0743 317.393 66.14 317.204 66.2275 316.961C66.41 317.267 66.5851 317.581 66.7675 317.901L66.2057 327.988V328.218L47.2356 327.243C48.5635 321.844 51.0734 319.211 53.1163 317.922ZM116.352 368.818L115.864 352.482C116.71 349.473 117.469 346.742 118.118 344.401C118.41 346.345 118.658 348.135 118.848 349.786C120.643 365.286 117.994 368.31 116.352 368.818ZM170.344 123.895C169.257 124.292 165.12 121.805 161.195 119.227C161.195 118.754 161.231 118.287 161.253 117.834C161.808 107.169 143.618 100.53 138.051 99.3036C136.7 98.9707 135.39 98.5038 134.14 97.9104C131.174 96.5077 128.291 94.9519 125.502 93.2499L125.575 93.0479C125.575 93.0479 118.395 88.7078 118.242 83.2949C119.878 78.3716 121.943 73.5876 124.415 68.993C124.553 68.7213 124.707 68.4357 124.852 68.164C128.245 67.1564 131.412 65.5548 134.192 63.4408C135.308 77.3735 156.423 89.3626 156.423 89.3626L158.678 92.8458L159.21 93.6679C158.072 94.3088 157.525 94.8243 157.911 95.1238C159.517 96.3499 163.398 103.288 165.003 106.221C165.441 107.015 165.733 107.51 165.733 107.51C165.733 107.51 169.184 116.476 171.161 123.978C170.899 123.874 170.609 123.845 170.33 123.895H170.344Z" fill="url(#paint0_linear)"/>
<path id="Vector_2" d="M178.501 87.7604L178.253 88.0739L177.407 89.1537L161.173 100.105L157.729 94.6989L155.54 91.2157C155.54 91.2157 123.182 72.6852 137.095 54.8235C151.009 36.9617 171.57 77.4641 171.57 77.4641L178.501 87.7604Z" fill="#FFC5D3"/>
<path id="Vector_3" d="M145.851 44.1247C145.783 43.9941 145.616 43.9416 145.479 44.0073C145.342 44.0731 145.287 44.2323 145.356 44.3628L147.161 47.7849C147.23 47.9155 147.397 47.968 147.533 47.9022C147.67 47.8365 147.725 47.6773 147.656 47.5467L145.851 44.1247Z" fill="#3A3768"/>
<path id="Vector_4" d="M127.326 48.9093L127.319 48.9124C127.244 48.9488 127.213 49.0367 127.251 49.1089L127.789 50.1293C127.828 50.2014 127.92 50.2305 127.995 50.1941L128.002 50.191C128.077 50.1547 128.108 50.0667 128.07 49.9945L127.531 48.9741C127.493 48.902 127.401 48.8729 127.326 48.9093Z" fill="#3A3768"/>
<path id="Vector_5" d="M128.799 51.3254C128.756 51.243 128.651 51.2098 128.564 51.2513C128.478 51.2929 128.443 51.3934 128.486 51.4759L129.507 53.4109C129.551 53.4933 129.656 53.5265 129.742 53.485C129.829 53.4434 129.863 53.3429 129.82 53.2605L128.799 51.3254Z" fill="#3A3768"/>
<path id="Vector_6" d="M130.373 54.3373C130.331 54.2582 130.23 54.2264 130.147 54.2662C130.065 54.306 130.031 54.4024 130.073 54.4814L131.11 56.4475C131.152 56.5266 131.253 56.5584 131.335 56.5186C131.418 56.4788 131.452 56.3824 131.41 56.3034L130.373 54.3373Z" fill="#3A3768"/>
<path id="Vector_7" d="M140.19 37.4054L126.557 43.9605C125.751 44.3481 125.427 45.2863 125.833 46.0561L141.303 75.3861C141.709 76.1559 142.691 76.4656 143.497 76.0779L157.13 69.5229C157.936 69.1353 158.261 68.1971 157.855 67.4273L142.384 38.0973C141.978 37.3276 140.996 37.0178 140.19 37.4054Z" fill="#3A3768"/>
<path id="Vector_8" d="M138.445 39.2676C138.367 39.3045 138.298 39.356 138.24 39.4189C138.183 39.4818 138.14 39.555 138.113 39.6341C138.086 39.7132 138.075 39.7967 138.082 39.8797C138.089 39.9627 138.113 40.0435 138.154 40.1175L138.212 40.2359C138.252 40.3104 138.276 40.3917 138.284 40.4752C138.291 40.5588 138.28 40.6428 138.253 40.7225C138.226 40.8021 138.183 40.8759 138.125 40.9395C138.068 41.003 137.998 41.0551 137.92 41.0928L130.901 44.4645C130.824 44.5027 130.739 44.5259 130.652 44.5326C130.565 44.5392 130.478 44.5293 130.395 44.5034C130.312 44.4774 130.235 44.436 130.169 44.3815C130.104 44.327 130.05 44.2605 130.011 44.1858L129.945 44.0674C129.907 43.9928 129.853 43.9263 129.787 43.8716C129.721 43.8169 129.645 43.7751 129.562 43.7486C129.48 43.722 129.392 43.7113 129.305 43.717C129.218 43.7227 129.133 43.7447 129.055 43.7818L127.691 44.4436C127.541 44.5139 127.408 44.6119 127.298 44.7319C127.189 44.8519 127.106 44.9916 127.053 45.1427C127.001 45.2938 126.981 45.4533 126.994 45.612C127.007 45.7706 127.053 45.9252 127.129 46.0668L142.042 74.3293C142.195 74.6155 142.461 74.8324 142.78 74.9329C143.1 75.0334 143.449 75.0092 143.75 74.8657L155.993 68.9791C156.292 68.833 156.52 68.5797 156.625 68.2744C156.73 67.9691 156.705 67.6366 156.554 67.349L141.634 39.0725C141.559 38.9302 141.455 38.8033 141.329 38.6993C141.202 38.5952 141.055 38.516 140.897 38.4662C140.738 38.4164 140.571 38.3969 140.404 38.4089C140.238 38.4209 140.075 38.4641 139.926 38.5361L138.445 39.2676Z" fill="#1D3357"/>
<path id="Vector_9" d="M134.367 41.4078L132.522 42.2948C132.393 42.3571 132.341 42.508 132.406 42.6318C132.471 42.7556 132.629 42.8055 132.759 42.7432L134.603 41.8562C134.733 41.7939 134.785 41.643 134.72 41.5192C134.654 41.3954 134.496 41.3455 134.367 41.4078Z" fill="#E6E8EC"/>
<path id="Vector_10" d="M135.323 41.4905C135.488 41.4905 135.622 41.3625 135.622 41.2046C135.622 41.0466 135.488 40.9186 135.323 40.9186C135.157 40.9186 135.023 41.0466 135.023 41.2046C135.023 41.3625 135.157 41.4905 135.323 41.4905Z" fill="#E6E8EC"/>
<path id="Vector_11" d="M148.952 147.671L144.392 264.511C144.392 264.511 159.714 259.635 162.085 263.292C164.456 266.949 159.531 204.774 159.531 204.774L148.952 147.671Z" fill="#5F5570"/>
<path id="Vector_12" opacity="0.15" d="M148.952 147.671L144.392 264.511C144.392 264.511 159.714 259.635 162.085 263.292C164.456 266.949 159.531 204.774 159.531 204.774L148.952 147.671Z" fill="black"/>
<path id="Vector_13" d="M149.681 532.792C140.196 533.259 102.745 532.792 102.745 532.792C102.745 532.792 93.0119 525.596 92.2822 525.596C91.5526 525.596 91.0711 529.309 91.0711 529.309L75.7491 525.129V517.703C75.7491 517.703 75.2602 496.56 79.8787 495.641C84.4972 494.721 104.934 495.641 104.934 495.641C105.663 495.411 119.526 507.95 123.415 510.27C127.304 512.59 126.574 514.22 126.574 514.22C126.574 514.22 135.819 521.646 143.115 522.113C147.66 522.406 152.775 526.293 153.687 529.309C154.242 531.128 153.257 532.618 149.681 532.792Z" fill="#BC8487"/>
<path id="Vector_14" opacity="0.1" d="M149.682 532.792C140.197 533.259 102.745 532.792 102.745 532.792C102.745 532.792 93.0121 525.596 92.2824 525.596C91.5528 525.596 91.0713 529.309 91.0713 529.309L75.7493 525.129V517.85L90.0936 522.81L101.527 529.309H153.687C154.242 531.127 153.257 532.618 149.682 532.792Z" fill="black"/>
<g id="Vector_15" opacity="0.1">
<path d="M107.094 521.883C107.094 521.883 118.767 511.204 126.574 514.22L107.094 521.883Z" fill="black"/>
<path d="M107.094 521.883C107.094 521.883 118.767 511.204 126.574 514.22" stroke="black" stroke-miterlimit="10"/>
</g>
<path id="Vector_16" d="M33.1832 482.635C33.672 484.028 29.2943 485.888 29.2943 485.888V504.23C29.2943 504.23 31.2789 515.244 28.4115 518.456C28.1962 518.716 27.9242 518.929 27.6143 519.079C27.3044 519.23 26.964 519.314 26.6166 519.327C21.2685 519.556 9.5946 484.725 9.5946 484.725L8.86498 464.599L5.9465 462.669L1.80957 437.124H9.35383C9.35383 437.124 10.1491 436.657 11.4259 436.03C15.074 434.253 22.7132 431.153 26.8647 434.107L40.9682 464.446C40.9682 464.446 32.7017 481.241 33.1832 482.635Z" fill="#BC8487"/>
<path id="Vector_17" opacity="0.1" d="M28.4115 518.456C28.1962 518.716 27.9242 518.929 27.6143 519.08C27.3044 519.23 26.964 519.314 26.6166 519.327C21.2685 519.557 9.59459 484.725 9.59459 484.725L8.86497 464.599L5.9465 462.669L1.80957 437.124H9.35383C9.35383 437.124 10.1491 436.657 11.4259 436.03L13.2427 462.202L14.2131 484.725C14.2131 484.725 23.3771 509.246 28.4115 518.456Z" fill="black"/>
<path id="Vector_18" d="M163.727 387.488C161.355 390.797 145.851 398.808 145.851 398.808C145.851 398.808 139.284 399.157 131.623 404.73C127.662 407.614 113.894 413.333 101.527 418.189C89.9768 422.724 79.6381 426.5 79.6381 426.5L67.7307 439.736L58.6615 449.816C58.6615 449.816 53.1894 447.726 52.6422 451.558C52.095 455.389 43.8867 459.743 44.0691 460.44C44.2516 461.136 40.9683 462.878 40.9683 464.445C40.9683 466.013 28.7471 453.125 28.9295 445.288C29.112 437.451 22.7278 432.052 22.7278 432.052C22.7278 432.052 24.3694 429.265 26.9231 429.788C29.4768 430.31 31.6656 429.265 32.3952 428.395C33.1249 427.524 36.2257 429.614 37.685 428.917C39.1442 428.22 44.9812 414.462 44.9812 414.462L67.7234 399.895L112.96 370.943L115.047 369.605C115.047 369.605 121.066 372.239 118.622 350.664C118.147 346.484 117.352 341.406 116.141 335.219C108.662 297.079 135.476 292.725 135.476 292.725L159.006 300.213L164.661 308.573V308.615L165.937 360.124C165.937 360.124 166.098 384.179 163.727 387.488Z" fill="#433A59"/>
<path id="Vector_19" opacity="0.1" d="M101.344 411.87C101.344 411.87 101.417 414.343 101.527 418.189C89.9768 422.724 79.6381 426.5 79.6381 426.5L67.7307 439.736C67.5337 428.764 67.5775 414.511 67.7307 399.902L112.967 370.95C107.371 390.755 101.344 411.87 101.344 411.87Z" fill="black"/>
<path id="Vector_20" opacity="0.1" d="M164.639 308.594V308.636L129.252 309.291C129.252 309.291 123.051 332.454 122.139 337.33C121.912 338.529 120.541 343.649 118.6 350.685C118.126 346.505 117.33 341.427 116.119 335.24C108.641 297.1 135.454 292.746 135.454 292.746L158.984 300.234L164.639 308.594Z" fill="black"/>
<path id="Vector_21" d="M71.43 245.374L66.8699 328.971C66.8699 328.971 63.5866 451.753 66.8699 459.764C70.1532 467.776 71.43 480.315 71.43 480.315C71.43 480.315 69.4236 489.894 71.43 493.029C73.4365 496.163 79.8206 499.647 79.6382 501.388C79.4558 503.13 99.1555 512.534 109.37 497.557C109.37 497.557 103.168 489.197 104.445 485.54C105.722 481.882 103.898 476.483 103.898 476.483C103.898 476.483 100.432 466.208 100.432 460.962C100.432 455.717 99.1555 411.85 99.1555 411.85C99.1555 411.85 119.038 342.186 119.95 337.309C120.862 332.433 127.063 309.27 127.063 309.27L164.639 308.573C164.639 308.573 163.544 283.669 161.356 278.27C159.167 272.871 148.405 233.337 148.405 233.337L71.43 245.374Z" fill="#433A59"/>
<path id="Vector_22" d="M8.71914 327.327L5.45774 328.218L5.32642 331.297L103.11 332.503V331.29L8.71914 327.327Z" fill="#7B728F"/>
<path id="Vector_23" d="M124.057 70.9506C109.83 98.5026 118.665 104.264 120.073 104.974C117.06 103.637 77.8942 86.0676 83.0453 81.6092C86.3943 78.7042 89.2617 66.0672 90.9471 57.0109C91.9467 51.6051 92.5304 47.474 92.5304 47.474L133.63 54.6703C129.646 60.8006 126.48 66.1996 124.057 70.9506Z" fill="#FFC5D3"/>
<path id="Vector_24" opacity="0.1" d="M178.283 88.0739L177.436 89.1537L161.173 100.105L157.729 94.6989C162.742 91.9124 177.772 87.0359 177.772 87.0359L178.283 88.0739Z" fill="black"/>
<path id="Vector_25" d="M193.276 113.188C191.817 118.064 167.193 113.188 167.193 113.188L164.639 109.356C164.639 109.356 164.383 108.869 163.953 108.074C162.377 105.155 158.561 98.2448 156.985 97.0188C154.979 95.4513 178.509 87.7883 178.509 87.7883L185.718 102.766C187.494 103.907 189.134 105.231 190.606 106.716C192.43 108.604 193.94 110.965 193.276 113.188Z" fill="#E5E8EF"/>
<path id="Vector_26" d="M152.418 115.431C152.418 115.431 167.01 126.424 169.199 125.63C171.388 124.835 206.774 147.65 206.774 147.65C206.774 147.65 210.787 162.28 194.188 163.15C194.188 163.15 158.984 161.757 157.525 156.881C156.066 152.004 152.418 115.431 152.418 115.431Z" fill="#5F5570"/>
<path id="Vector_27" opacity="0.1" d="M112.653 93.3335L96.7839 109.008L119.037 244.155L127.793 239.279C127.793 239.279 150.411 248.858 152.235 239.975C154.059 231.093 153.556 196.087 153.556 196.087L150.593 132.847C150.593 132.847 140.196 110.729 140.196 110.032C140.196 109.335 125.203 98.5374 125.203 98.5374L118.125 93.3126L112.653 93.3335Z" fill="black"/>
<path id="Vector_28" d="M112.653 91.2436L96.7839 106.918L119.037 242.065L127.793 237.189C127.793 237.189 150.411 246.768 152.235 237.885C154.059 229.003 153.556 193.997 153.556 193.997L150.593 130.757C150.593 130.757 140.196 108.639 140.196 107.942C140.196 107.245 125.203 96.4474 125.203 96.4474L118.125 91.2227L112.653 91.2436Z" fill="#E5E8EF"/>
<path id="Vector_29" opacity="0.1" d="M113.565 93.5076L109.188 102.041L113.565 106.451C113.565 106.451 129.252 136.699 126.151 154.637L129.434 213.677L140.014 223.604L148.405 214.353L144.392 160.712C144.392 160.712 133.63 116.476 122.321 102.717L119.037 90.526L113.565 93.5076Z" fill="black"/>
<path id="Vector_30" d="M113.565 92.1145L109.188 100.648L113.565 105.058C113.565 105.058 129.252 135.306 126.151 153.244L129.434 212.284L140.014 222.211L148.405 212.96L144.392 159.319C144.392 159.319 133.63 115.083 122.321 101.324L119.037 89.1329L113.565 92.1145Z" fill="#BC8487"/>
<path id="Vector_31" opacity="0.1" d="M133.63 54.6702C129.646 60.8006 126.509 66.1995 124.057 70.9506C121.475 71.6776 118.797 72.0459 116.105 72.0443C107.086 72.0443 101.892 66.088 96.7842 59.7626C95.6168 58.3275 91.779 58.6619 90.9473 56.976C91.9468 51.5701 92.5305 47.4391 92.5305 47.4391L133.63 54.6702Z" fill="black"/>
<path id="Vector_32" d="M144.071 44.6358C144.07 38.2765 141.693 32.1261 137.366 27.2913C133.04 22.4565 127.048 19.2548 120.469 18.2624C113.89 17.2699 107.156 18.5519 101.479 21.8776C95.8022 25.2032 91.5546 30.3542 89.5009 36.4037C87.4472 42.4532 87.7221 49.0038 90.2763 54.877C92.8304 60.7502 97.496 65.5601 103.434 68.4414C109.371 71.3227 116.191 72.086 122.665 70.5941C129.14 69.1022 134.844 65.453 138.752 60.3032C142.21 55.7463 144.071 50.2629 144.071 44.6358Z" fill="#FFC5D3"/>
<path id="Vector_33" opacity="0.1" d="M107.181 104.131L84.1982 77.6592C84.1982 77.6592 82.075 76.8441 89.2471 69.6757C89.2471 69.6757 115.586 89.2791 117.221 92.609C118.855 95.9389 107.181 104.131 107.181 104.131Z" fill="black"/>
<path id="Vector_34" d="M106.451 102.738L83.4684 76.2659C83.4684 76.2659 81.3453 75.4509 88.5174 68.2825C88.5174 68.2825 114.857 87.8858 116.491 91.2157C118.125 94.5457 106.451 102.738 106.451 102.738Z" fill="#E5E8EF"/>
<path id="Vector_35" d="M164.639 271.22C164.639 271.22 160.261 268.712 160.261 265.751C160.261 262.79 158.072 220.992 158.072 220.992C158.072 220.992 154.862 196.046 151.505 176.219C149.535 164.537 147.514 154.624 146.084 152.659L146.026 152.575C142.195 147.873 142.925 124.884 119.03 91.2715C119.351 91.4805 127.588 96.9978 133.622 99.7704C134.851 100.36 136.139 100.827 137.468 101.164C142.94 102.383 160.815 109.001 160.268 119.625C159.721 130.248 161.545 154.631 161.545 154.631V204.6L164.639 271.22Z" fill="#5F5570"/>
<path id="Vector_36" d="M164.639 109.356C164.639 109.356 172.3 129.559 171.205 134.609C170.111 139.66 188.899 159.514 188.899 159.514L206.774 147.671C206.774 147.671 200.025 134.783 200.937 130.952C201.849 127.12 196.195 118.935 196.195 118.935L196.559 105.364C196.559 105.364 193.276 111.251 164.639 109.356Z" fill="#5F5570"/>
<path id="Vector_37" opacity="0.1" d="M138.752 28.9713L124.889 29.4729C123.535 29.4644 122.186 29.626 120.876 29.9535C115.922 31.4095 113.638 36.4392 113.456 40.9604C113.274 45.4816 110.537 50.5461 105.233 50.9432C104.705 51.0288 104.163 50.9138 103.723 50.6227C103.386 50.281 103.163 49.8521 103.081 49.3897C102.32 46.7552 101.144 44.2465 99.5932 41.9496C97.4043 42.3258 95.7846 44.3112 95.2155 46.3872C94.6464 48.4632 94.7996 50.6506 94.8069 52.8032C94.8135 55.537 94.5373 58.2648 93.9824 60.9469C91.7206 58.1434 90.0649 54.9386 89.1117 51.5187C88.1586 48.0989 87.9269 44.5323 88.4301 41.0262C88.9334 37.5201 90.1615 34.1445 92.0432 31.0956C93.9249 28.0468 96.4225 25.3854 99.3909 23.2663C102.359 21.1472 105.739 19.6126 109.334 18.7518C112.93 17.8909 116.668 17.721 120.332 18.2518C123.997 18.7827 127.514 20.0037 130.68 21.8439C133.846 23.6841 136.597 26.1069 138.774 28.9713H138.752Z" fill="black"/>
<path id="Vector_38" d="M120.154 29.257C121.464 28.9294 122.813 28.7678 124.167 28.7763L140.999 28.1772C143.465 28.0866 146.216 27.8776 147.872 26.1291C148.467 25.4614 148.905 24.6799 149.156 23.8371C149.59 22.4906 149.717 21.0713 149.53 19.6741C149.342 18.2768 148.844 16.9339 148.069 15.7353C146.121 12.7746 142.707 11.0539 139.452 9.46553C136.424 7.92064 133.314 6.52552 130.135 5.28572C118.328 1.00444 105.255 1.18382 93.5813 5.78729C92.4278 6.20999 91.3346 6.76936 90.3272 7.45225C88.9201 8.60338 87.722 9.9686 86.7812 11.4927L81.2434 19.4623C80.4793 20.4354 79.89 21.523 79.4996 22.6807C78.4562 26.4635 81.6885 30.2462 81.3528 34.1404C81.1631 36.077 80.0906 37.8535 79.8936 39.7901C79.6309 42.291 80.8275 44.6666 82.0022 46.9446L91.7353 65.691C93.307 61.3196 94.1035 56.7284 94.092 52.1066C94.092 49.954 93.9023 47.7666 94.5006 45.6906C95.0989 43.6146 96.6894 41.6292 98.8783 41.253C100.433 43.5489 101.611 46.0578 102.373 48.6931C102.454 49.156 102.677 49.5854 103.015 49.9262C103.455 50.2179 103.998 50.333 104.526 50.2466C109.859 49.8495 112.551 44.8337 112.748 40.2638C112.945 35.6939 115.2 30.7129 120.154 29.257Z" fill="#8F7080"/>
<path id="Vector_39" d="M5.45776 328.218L12.2724 326.358L115.025 331.702L103.716 333.095L5.45776 328.218Z" fill="#7B728F"/>
<path id="Vector_40" opacity="0.1" d="M5.45776 328.218L12.2724 326.358L115.025 331.702L103.716 333.095L5.45776 328.218Z" fill="black"/>
<path id="Vector_41" d="M117.819 425.747L104.263 424.542L99.5056 424.124V352.134L100.761 335.422L101.038 331.702H115.025L117.819 425.747Z" fill="#7B728F"/>
<path id="Vector_42" opacity="0.1" d="M114.113 423.191L103.3 422.048L99.5056 421.651V353.395L100.505 337.553L100.724 334.021H111.88L114.113 423.191Z" fill="black"/>
<path id="Vector_43" d="M39.9614 328.218C39.9614 328.218 46.7104 314.084 49.5413 313.645C52.3722 313.206 57.5671 313.645 57.5671 313.645L57.1075 317.741C57.1075 317.741 50.1761 318.263 47.9872 329.319L39.9614 328.218Z" fill="#7B728F"/>
<path id="Vector_44" opacity="0.1" d="M39.9614 328.218C39.9614 328.218 46.7104 314.084 49.5413 313.645C52.3722 313.206 57.5671 313.645 57.5671 313.645L57.1075 317.741C57.1075 317.741 50.1761 318.263 47.9872 329.319L39.9614 328.218Z" fill="black"/>
<path id="Vector_45" d="M66.1402 312.168C66.1402 312.168 84.2858 320.785 81.9146 330.886L72.0647 330.364C72.0647 330.364 67.3222 315.303 63.5865 314.516C59.8509 313.728 66.1402 312.168 66.1402 312.168Z" fill="#7B728F"/>
<path id="Vector_46" d="M133.63 175.711V176.219L133.265 234.228C133.265 234.228 123.963 282.993 121.409 284.908C118.855 286.824 62.8569 281.599 62.8569 281.599L37.5027 118.412C37.3203 90.5469 57.932 91.4177 57.932 91.4177C60.6681 87.2379 73.8012 83.9289 73.8012 83.9289L81.0974 77.1367L81.3309 76.8232C81.8157 76.1331 82.441 75.5431 83.1696 75.0886C84.6726 74.2596 85.6284 75.3533 86.1756 76.4331C86.4219 76.94 86.6126 77.47 86.7447 78.0144C116.302 98.7115 133.63 175.711 133.63 175.711Z" fill="#5F5570"/>
<path id="Vector_47" opacity="0.1" d="M132.9 176.407V176.916C123.729 160.893 88.3935 100.188 78.7261 97.165L82.4471 94.7268C82.4471 94.7268 84.9278 93.3335 80.3677 91.9403C80.3677 91.9403 73.2539 92.8111 73.0715 84.6256L80.6012 77.5199L82.4399 75.7853L85.4459 77.1298C85.6922 77.6368 85.8829 78.1667 86.015 78.7111C115.572 99.4082 132.9 176.407 132.9 176.407Z" fill="black"/>
<path id="Vector_48" d="M133.63 175.711V176.219C124.458 160.197 89.123 99.4918 79.4556 96.4684L83.1766 94.0302C83.1766 94.0302 85.6573 92.6369 81.0972 91.2436C81.0972 91.2436 73.9834 92.1144 73.801 83.9289L81.3307 76.8233L83.1694 75.0886L86.1754 76.4331C86.4217 76.9401 86.6124 77.47 86.7445 78.0145C116.301 98.7116 133.63 175.711 133.63 175.711Z" fill="#433A59"/>
<path id="Vector_49" opacity="0.1" d="M146.821 153.328L146.763 153.244C142.932 148.542 143.662 125.553 119.767 91.9403C120.088 92.1493 128.326 97.6667 134.359 100.439L132.674 105.748L136.322 107.608L146.821 153.328Z" fill="black"/>
<path id="Vector_50" d="M146.092 152.631L146.033 152.548C142.203 147.845 142.932 124.856 119.037 91.2437C119.358 91.4526 127.596 96.97 133.63 99.7426L131.944 105.051L135.592 106.911L146.092 152.631Z" fill="#433A59"/>
<path id="Vector_51" opacity="0.1" d="M117.987 85.8795L116.491 91.9124C116.491 91.9124 117.586 97.9522 124.145 98.4747L125.203 95.5976C125.203 95.5976 118.126 91.2645 117.987 85.8795Z" fill="black"/>
<path id="Vector_52" d="M117.987 85.1829L116.491 91.2157C116.491 91.2157 117.586 97.2556 124.145 97.7781L125.203 94.9009C125.203 94.9009 118.126 90.5679 117.987 85.1829Z" fill="#E5E8EF"/>
<path id="Vector_53" opacity="0.1" d="M108.553 332.677L104.263 424.542L99.5056 424.124V352.134L100.761 335.422L108.553 332.677Z" fill="black"/>
<path id="Vector_54" d="M6.43532 368.156L3.51685 417.847L102.745 425.747L107.094 332.677L6.43532 368.156Z" fill="#7B728F"/>
<path id="Vector_55" opacity="0.1" d="M4.24658 373.5L6.18737 329.612L107.823 334.07L102.986 380.466L4.24658 373.5Z" fill="black"/>
<path id="Vector_56" d="M3.51685 372.106L5.45763 328.218L107.094 332.677L102.256 379.073L3.51685 372.106Z" fill="#7B728F"/>
<path id="Vector_57" d="M58.4789 372.162H46.2578V385.747H58.4789V372.162Z" fill="#C3BBC8"/>
<path id="Vector_58" d="M48.082 283.167L46.2579 287.869C46.2579 287.869 42.4274 313.645 47.1699 316.78C51.9125 319.914 65.9576 320.089 66.6873 318.521C67.4169 316.954 72.5242 299.19 72.5242 299.19C72.5242 299.19 77.0843 312.251 79.4556 311.206C81.8268 310.162 73.9834 285.333 73.9834 285.333L48.082 283.167Z" fill="#FFC5D3"/>
<path id="Vector_59" opacity="0.1" d="M46.2578 263.661V288.566C46.2578 288.566 65.5927 292.049 73.9833 286.03C73.9833 286.03 66.1399 261.92 69.0584 255.824C71.9769 249.728 46.2578 263.661 46.2578 263.661Z" fill="black"/>
<path id="Vector_60" d="M46.2578 262.964V287.869C46.2578 287.869 65.5927 291.352 73.9833 285.334C73.9833 285.334 66.1399 261.223 69.0584 255.127C71.9769 249.032 46.2578 262.964 46.2578 262.964Z" fill="#E5E8EF"/>
<path id="Vector_61" opacity="0.1" d="M44.0692 117.193L38.9618 119.806C38.9618 119.806 38.0498 130.255 37.5026 131.649C36.9554 133.042 37.5026 147.149 37.5026 147.149L37.2545 175.711C37.2545 175.711 36.4665 190.863 37.2545 196.262C38.0425 201.66 38.9253 222.211 38.9253 222.211C38.9253 222.211 43.8576 242.24 42.0335 249.38C40.2095 256.521 42.2159 272.543 45.3168 271.15C48.4177 269.757 77.0553 264.358 78.5145 263.313C79.9737 262.268 79.2441 252.515 78.5145 251.296C77.7849 250.077 73.4072 233.532 73.772 229.7C74.1368 225.869 72.4951 192.256 72.4951 192.256C72.4951 192.256 75.2312 156.379 76.3256 148.019C77.4201 139.66 74.1368 115.103 71.2183 114.755C68.2998 114.407 59.756 95.4235 44.0692 117.193Z" fill="black"/>
<path id="Vector_62" d="M42.6099 115.8L37.5026 118.412C37.5026 118.412 36.5906 128.862 36.0434 130.255C35.4961 131.649 36.0434 145.755 36.0434 145.755L35.7953 174.317C35.7953 174.317 35.0073 189.469 35.7953 194.868C36.5833 200.267 37.4661 220.818 37.4661 220.818C37.4661 220.818 42.3984 240.846 40.5743 247.987C38.7503 255.127 40.7567 271.15 43.8576 269.757C46.9585 268.363 75.596 262.964 77.0553 261.919C78.5145 260.875 77.7849 251.122 77.0553 249.902C76.3257 248.683 71.9479 232.138 72.3127 228.307C72.6776 224.475 71.0359 190.863 71.0359 190.863C71.0359 190.863 73.772 154.986 74.8664 146.626C75.9608 138.267 72.6776 113.71 69.7591 113.362C66.8406 113.013 58.2967 94.0302 42.6099 115.8Z" fill="#5F5570"/>
<g id="Group" opacity="0.1">
<path id="Vector_63" opacity="0.1" d="M97.7765 38.6407C95.5876 39.0169 93.9679 41.0023 93.3988 43.0783C92.8297 45.1542 92.9829 47.3417 92.9902 49.4943C93.0042 54.1157 92.2102 58.7069 90.6408 63.0787L80.9004 44.3322C80.7107 43.963 80.5137 43.5798 80.324 43.1967C80.7747 44.4868 81.3334 45.7401 81.9948 46.9446L91.7352 65.6911C93.3046 61.3193 94.0986 56.7281 94.0846 52.1067C94.0846 49.9541 93.9022 47.7666 94.4932 45.6906C95.0842 43.6147 96.6821 41.6293 98.8709 41.2531C99.5775 42.3097 100.209 43.4106 100.761 44.5482C100.019 42.4712 99.0174 40.4876 97.7765 38.6407Z" fill="black"/>
<path id="Vector_64" opacity="0.1" d="M148.244 16.0348C148.672 17.7487 148.612 19.5407 148.069 21.2247C147.815 22.0679 147.375 22.8494 146.778 23.5167C145.122 25.2652 142.4 25.4742 139.905 25.5648L123.08 26.1639C121.723 26.1554 120.372 26.317 119.06 26.6446C114.113 28.1005 111.822 33.1302 111.639 37.6514C111.457 42.1726 108.721 47.2371 103.417 47.6342C102.889 47.7198 102.347 47.6048 101.906 47.3138C102.074 47.7666 102.235 48.2263 102.373 48.707C102.448 49.1702 102.67 49.6004 103.008 49.9401C103.448 50.2311 103.99 50.3461 104.518 50.2605C109.859 49.8634 112.544 44.8477 112.741 40.2777C112.938 35.7078 115.214 30.7268 120.161 29.2709C121.474 28.9433 122.825 28.7817 124.181 28.7902L141.006 28.1911C143.473 28.1005 146.223 27.8915 147.88 26.143C148.476 25.4757 148.917 24.6942 149.171 23.851C149.585 22.557 149.716 21.1956 149.556 19.8512C149.397 18.5068 148.95 17.2079 148.244 16.0348Z" fill="black"/>
</g>
<path id="Vector_65" opacity="0.1" d="M120.847 301.76C120.847 301.76 127.165 298.625 129.602 298.799C132.039 298.974 153.921 325.543 153.921 325.543L120.847 301.76Z" fill="black"/>
<path id="Vector_66" opacity="0.1" d="M56.0351 121.944C56.0351 121.944 44.4852 126.654 44.7916 129.907C45.0981 133.16 56.0351 121.944 56.0351 121.944Z" fill="black"/>
<path id="Vector_67" opacity="0.1" d="M50.4094 137.34C50.4094 137.34 38.2904 152.137 40.9681 152.631C43.6458 153.126 50.4094 137.34 50.4094 137.34Z" fill="black"/>
<path id="Vector_68" opacity="0.1" d="M90.9471 159.514C90.9471 159.514 92.0562 192.604 83.1694 196.784L90.9471 159.514Z" fill="black"/>
<path id="Vector_69" opacity="0.1" d="M44.7622 247.868C44.7622 247.868 53.3134 243.229 55.276 244.155C57.2387 245.082 44.7622 247.868 44.7622 247.868Z" fill="black"/>
<path id="Vector_70" opacity="0.1" d="M46.2578 254.284C46.2578 254.284 51.657 254.654 54.218 253.588C56.7789 252.522 46.2578 254.284 46.2578 254.284Z" fill="black"/>
<path id="Vector_71" opacity="0.1" d="M175.145 132.436C175.145 132.436 181.843 150.806 185.703 150.806L175.145 132.436Z" fill="black"/>
<path id="Vector_72" opacity="0.1" d="M79.9006 484.265C79.9006 484.265 92.4647 481.011 94.3179 484.265C96.1711 487.518 79.9006 484.265 79.9006 484.265Z" fill="black"/>
<path id="Vector_73" opacity="0.1" d="M39.9612 436.03C39.9612 436.03 36.8311 440.607 40.968 442C45.105 443.393 39.9612 436.03 39.9612 436.03Z" fill="black"/>
<path id="Vector_74" opacity="0.1" d="M123.415 372.162C123.415 372.162 132.9 380.229 137.38 380.466C141.86 380.703 123.415 372.162 123.415 372.162Z" fill="black"/>
</g>
<defs>
<linearGradient id="paint0_linear" x1="104.503" y1="532.792" x2="104.503" y2="-0.0157519" gradientUnits="userSpaceOnUse">
<stop stop-color="#808080" stop-opacity="0.25"/>
<stop offset="0.54" stop-color="#808080" stop-opacity="0.12"/>
<stop offset="1" stop-color="#808080" stop-opacity="0.1"/>
</linearGradient>
</defs>
</svg>
