<svg width="346" height="441" viewBox="0 0 346 441" fill="none" xmlns="http://www.w3.org/2000/svg">
<g id="businesswoman">
<path id="Vector" d="M0.54364 113.327C1.22241 109.067 5.48499 101.278 5.48499 101.278L11.6413 90.8487C11.6413 90.8487 14.0576 87.9974 13.8336 87.0764C13.6096 86.1553 16.6912 84.6315 16.6912 84.6315C16.6912 84.6315 18.4491 82.3423 18.5577 81.2452C18.6664 80.148 28.5557 71.8583 28.5557 71.8583C28.5557 71.8583 31.9495 69.0206 31.1893 59.4239H38.9881C40.9795 59.4775 42.9643 59.6744 44.9272 60.0131L56.3031 46.7591C56.3031 46.7591 65.2558 39.3567 73.17 34.9884C73.17 34.9206 73.17 34.8529 73.17 34.7852C73.1525 29.8415 74.6727 25.0143 77.5209 20.9691L77.6023 20.8607C76.3354 20.5409 75.1387 19.9898 74.0728 19.2353C73.3701 18.7593 72.8226 18.0883 72.4981 17.3051C71.2288 14.0543 76.238 12.5643 78.5254 11.3926C83.1613 9.00868 87.0166 5.45984 91.7475 3.26552C96.4669 1.08279 101.612 -0.0320804 106.813 0.000702575C112.015 0.0334856 117.145 1.21311 121.837 3.45515C126.459 5.73752 130.484 9.01545 134.638 12.0563C141.147 16.7972 138.642 21.1655 143.733 27.4098C148.824 33.6541 151.702 42.4518 148.518 49.8339C146.645 54.1683 142.919 57.4937 138.826 59.8912C134.733 62.2887 139.728 63.8735 135.344 65.6885C134.312 66.122 133.185 66.657 132.764 67.7203C132.504 68.5978 132.545 69.5368 132.88 70.3887C133.688 73.2671 134.76 76.3689 134.19 79.1931C136.905 80.4596 138.771 81.1639 138.771 81.1639C144.405 83.128 145.362 87.1035 145.362 87.1035C145.362 87.1035 144.337 90.6252 146.604 92.3725C148.871 94.1199 147.921 98.9149 147.921 98.9149C147.921 98.9149 150.996 105.823 150.202 106.839C149.585 107.716 149.042 108.642 148.579 109.609C148.579 109.609 151.145 111.641 149.828 114.553C148.511 117.465 149.828 120.587 149.828 120.587C149.828 120.587 149.15 122.192 150.337 123.066C151.525 123.94 150.337 130.59 150.337 130.59C150.369 131.488 150.707 132.348 151.294 133.028C152.285 134.193 151.294 145.537 151.294 145.537C151.573 146.104 151.988 146.593 152.503 146.96C153.181 147.285 155.136 157.979 154.586 158.52C154.037 159.062 162.867 184.778 162.867 184.778C162.867 184.778 162.65 189.248 163.858 190.013C165.066 190.778 165.283 195.905 165.283 195.905C165.283 195.905 164.74 200.483 166.933 201.357C169.125 202.231 169.573 217.726 169.573 217.726C169.573 217.726 172.539 225.691 174.324 226.998C172.534 229.194 170.344 231.032 167.869 232.416L168.141 233.134C169.627 237.198 171.65 243.496 171.915 248.711C173.716 250.442 175.323 252.363 176.707 254.441C176.707 254.441 175.919 255.118 174.962 255.931L197.416 283.59C206.592 270.471 211.574 275.334 211.574 275.334L214.968 276.262C215.491 276.384 217.52 276.716 217.683 274.447C217.741 273.775 217.906 273.117 218.172 272.496C218.478 271.738 218.967 271.068 219.597 270.546C220.029 270.191 220.551 269.961 221.105 269.881C221.659 269.801 222.224 269.874 222.74 270.092C225.591 271.189 263.098 277.542 263.098 277.542C263.098 277.542 274.807 279.506 285.572 293.688C291.723 301.885 298.558 309.55 306.002 316.6L335.27 351.269C335.27 351.269 350.04 371.187 342.872 370.828C344.616 375.101 342.96 379.415 342.96 379.415L313.964 416.245C313.968 417.241 313.72 418.222 313.242 419.097C312.765 419.972 312.074 420.713 311.234 421.25C310.393 421.788 309.431 422.105 308.435 422.173C307.438 422.241 306.441 422.056 305.536 421.637C304.63 421.218 303.845 420.578 303.253 419.775C302.662 418.973 302.283 418.035 302.151 417.047C302.02 416.06 302.14 415.055 302.501 414.126C302.862 413.198 303.452 412.375 304.217 411.734L260.933 391.714C260.487 392.427 259.893 393.037 259.191 393.503C258.489 393.968 257.696 394.279 256.865 394.414C256.033 394.549 255.182 394.506 254.369 394.286C253.555 394.067 252.798 393.676 252.148 393.142C251.498 392.607 250.97 391.94 250.599 391.185C250.228 390.43 250.023 389.604 249.998 388.764C249.972 387.924 250.127 387.088 250.451 386.312C250.775 385.536 251.262 384.838 251.879 384.265L235.493 367.855C235.493 367.855 186.942 317.013 183.23 309.373C181.119 305.052 184.831 299.12 188.449 294.792L157.471 254.834L156.358 255.335L150.127 248.989C145.376 245.183 149.401 240.279 149.401 240.279C150.819 238.999 153.521 239.196 156.575 240.063C156.29 238.843 156.032 237.658 155.815 236.548C155.754 236.25 155.693 235.958 155.638 235.667C153.687 235.669 151.74 235.472 149.828 235.078C149.828 235.078 149.15 220.788 147.195 215.112L141.371 186.2C141.371 186.2 137.855 173.874 136.538 167.108C135.222 160.342 129.432 134.376 129.432 134.376C128.488 131.538 128.074 139.178 128.074 139.178C128.074 139.178 126.167 141.142 126.608 142.158C127.049 143.174 126.242 148.998 126.242 148.998C126.242 148.998 125.217 152.486 125.943 153.218C126.09 153.394 126.203 153.596 126.276 153.814C126.954 155.371 127.857 160.159 127.857 160.159L130.43 169.675L130.857 170.02C132.508 171.455 133.779 173.274 134.556 175.317C135.337 177.132 135.785 178.852 136.246 179.949C136.35 180.19 136.482 180.417 136.64 180.626C136.917 180.995 137.146 181.398 137.319 181.825C137.913 183.328 138.354 184.887 138.636 186.478L138.33 186.674C138.33 186.735 138.378 186.803 138.405 186.864L138.534 187.189V187.229C138.812 187.907 139.07 188.618 139.328 189.322L139.409 189.546C139.647 190.223 139.878 190.9 140.088 191.544C140.122 191.659 140.163 191.774 140.197 191.889C140.407 192.519 140.604 193.149 140.794 193.765L140.916 194.158C141.093 194.747 141.269 195.33 141.432 195.898C141.432 195.966 141.473 196.041 141.493 196.102C142.888 200.978 143.627 206.018 143.692 211.089C143.848 223.05 143.964 247.194 142.484 250.458C142.389 250.675 142.287 250.926 142.192 251.203C140.36 256.561 138.968 272.713 138.968 272.713C137.99 273.384 136.967 273.988 135.907 274.521C135.873 274.826 135.839 275.131 135.798 275.449C135.018 282.093 133.918 291.08 133.552 291.988C132.961 293.444 131.645 302.147 131.645 302.147C131.645 302.147 132.676 306.068 133.402 309.705C134.129 313.342 143.658 323.386 143.658 323.386C155.801 333.436 167.958 368.945 167.958 368.945C170.381 374.146 173.055 376.07 175.024 376.733C188.144 376.246 188.755 386.892 188.755 386.892L197.035 402.747L194.938 404.23L193.954 404.907L185.531 395.162C185.531 395.162 185.531 406.289 187.071 408.978C188.117 410.806 188.286 414.159 188.286 416.123C188.286 417.044 188.246 417.66 188.246 417.66C188.246 417.66 185.68 423.078 174.406 429.783C169.342 432.783 166.39 432.276 164.673 430.792C162.568 428.977 162.317 425.713 162.317 425.713L167.069 417.66C167.306 417.762 167.537 417.836 167.747 417.924C167.747 417.647 167.747 417.362 167.747 417.057C167.449 409.946 161.041 394.945 161.041 394.945C161.041 394.945 154.892 378.792 149.767 373.848C145.294 369.534 127.334 342.295 122.828 335.421V335.651C122.828 335.983 122.78 336.328 122.746 336.613C122.067 343.974 120.031 347.225 120.031 347.225C120.031 347.225 117.689 377.025 117.255 384.61C116.977 389.351 118.137 392.554 119.047 394.281L119.094 394.363C119.142 394.363 123.771 396.787 124.205 401.487C124.64 406.187 122.013 410.651 122.013 410.651C122.013 410.651 116.033 425.544 116.25 429.824H112.734L113.318 416.875L113.264 416.942C112.626 417.789 106.347 426.194 106.137 430.4C106.137 430.4 104.549 434.727 104.596 435.912C104.593 435.944 104.593 435.976 104.596 436.007C104.746 437.023 99.0305 441.825 90.7497 440.877C82.469 439.929 81.0164 438.77 81.0164 438.77C81.0164 438.77 80.9214 438.506 80.7993 438.093C80.3852 436.535 79.7268 432.736 82.4757 430.86C85.917 428.51 93.0711 421.92 93.3765 421.643C94.5507 411.897 98.2906 398.656 98.2906 398.656V378.691C98.2906 378.691 96.6006 333.01 97.768 325.302C98.4928 320.919 98.4928 316.446 97.768 312.062C97.768 312.062 92.6435 297.663 93.6955 296.058C94.7476 294.453 91.5031 288.785 91.5031 288.785L85.3469 271.562L84.9872 270.559C83.9826 270.18 83.3242 269.93 83.0866 269.882C81.0504 269.449 83.0866 266.171 83.0866 266.171C83.0866 266.171 76.557 238.464 77.2222 233.439C77.8874 228.414 75.6815 207.805 75.6815 207.805L74.6294 199.258L74.5344 198.492C73.8556 199.332 73.3805 199.847 73.3805 199.847C66.3554 198.682 60.3484 179.529 61.8892 178.459C63.43 177.389 67.7468 163.404 67.7468 163.404C74.6294 153.874 68.4256 134.092 68.4256 134.092C68.4256 134.092 62.1268 118.163 62.2014 115.542C62.2761 112.921 60.7354 112.833 60.7354 112.833V112.758C54.9524 113.991 34.8681 118.251 33.8364 118.461C32.6283 118.704 30.2119 118.867 27.7955 119.849C25.3792 120.831 9.77469 118.461 9.77469 118.461C9.77469 118.461 -0.114746 117.567 0.54364 113.327ZM155.978 246.815L161.041 253.235L160.288 253.574L191.083 291.88C192.725 290.166 193.954 289.089 193.954 289.089C194.266 288.541 194.578 288.019 194.884 287.505L172.01 258.382C171.88 258.487 171.738 258.578 171.589 258.653L169.777 256.5C169.278 256.939 168.697 257.275 168.066 257.488C163.77 258.958 160.6 253.371 158.428 246.781C157.619 246.617 156.784 246.624 155.978 246.801V246.815ZM87.1048 61.9975C87.1048 61.923 87.1048 61.8485 87.1048 61.774C87.1048 61.8349 87.1048 61.9094 87.1048 61.9975ZM87.1048 61.6046C87.1022 61.6565 87.1022 61.7085 87.1048 61.7604C87.0969 61.7088 87.0924 61.6568 87.0912 61.6046H87.1048ZM44.934 91.4921C44.934 91.4921 45.925 88.4377 46.5834 88.4377C47.4246 88.2565 48.2374 87.9626 48.9997 87.564C49.2572 87.6341 49.5264 87.6505 49.7905 87.6122C50.0547 87.5738 50.3081 87.4815 50.5348 87.3411C50.7616 87.2006 50.9569 87.015 51.1085 86.7958C51.2602 86.5766 51.3648 86.3286 51.4161 86.0673C52.0948 84.0355 56.2895 82.4372 56.2895 82.4372C56.2895 82.4372 62.439 79.8907 62.9549 77.7776C63.4707 75.6646 72.2538 73.3415 72.2538 73.3415C72.2538 73.3415 71.6632 72.4747 75.4032 71.2353C76.7126 70.6901 77.9304 69.9478 79.0141 69.0342C81.8702 66.7311 84.5707 64.2424 87.0981 61.5843C87.0042 60.0003 86.738 58.4311 86.3039 56.9045C86.2089 56.5591 86.1071 56.2272 85.9917 55.8886C84.2493 55.0317 82.6288 53.9476 81.1725 52.6648L76.6113 59.2681C76.382 59.5995 76.0305 59.8269 75.6337 59.9005C75.2369 59.9741 74.827 59.888 74.4936 59.6609L70.8555 57.1889C68.9143 57.9485 66.8252 58.2566 64.7468 58.0897L56.6493 67.8354C56.7656 68.9402 56.6477 70.0571 56.3031 71.1134L37.4813 93.3749C37.9768 93.2394 44.9204 91.4921 44.9204 91.4921H44.934Z" fill="url(#paint0_linear)"/>
<path id="Vector_2" d="M41.2214 59.5864C41.2214 59.5864 61.9436 59.8031 58.4141 71.2556L50.5067 75.8339L42.6264 74.2355L38.9272 67.7135L41.2214 59.5864Z" fill="#65617D"/>
<path id="Vector_3" opacity="0.1" d="M41.2214 59.5864C41.2214 59.5864 61.9436 59.8031 58.4141 71.2556L50.5067 75.8339L42.6264 74.2355L38.9272 67.7135L41.2214 59.5864Z" fill="black"/>
<path id="Vector_4" d="M86.3583 39.6276C80.6772 60.2434 66.8238 58.2319 66.8238 58.2319L57.9389 68.9665L56.629 70.6326L53.7918 74.2356L41.2213 67.1108L43.7259 64.1715L58.4141 46.9556C58.4141 46.9556 92.0395 19.0186 86.3583 39.6276Z" fill="#FBBEBE"/>
<path id="Vector_5" d="M87.6246 46.639C87.5652 46.7253 87.4469 46.7473 87.3603 46.6881C87.2738 46.6289 87.2517 46.5109 87.3111 46.4245L88.8811 44.14C88.9404 44.0536 89.0587 44.0316 89.1452 44.0909C89.2318 44.1501 89.2539 44.2681 89.1945 44.3545L87.6246 46.639Z" fill="#3A3768"/>
<path id="Vector_6" d="M79.5485 35.671C79.5145 35.7204 79.4468 35.7329 79.3973 35.699C79.3478 35.6652 79.3351 35.5977 79.3691 35.5483L79.834 34.8718C79.868 34.8224 79.9356 34.8098 79.9852 34.8437C80.0347 34.8775 80.0473 34.9451 80.0134 34.9945L79.5485 35.671Z" fill="#3A3768"/>
<path id="Vector_7" d="M76.8885 40.289C76.85 40.3442 76.7739 40.3579 76.7185 40.3194C76.6631 40.281 76.6494 40.2051 76.6879 40.1498L77.5786 38.8713C77.6171 38.816 77.6932 38.8024 77.7486 38.8408C77.804 38.8792 77.8177 38.9552 77.7792 39.0104L76.8885 40.289Z" fill="#3A3768"/>
<path id="Vector_8" d="M76.6588 39.8791C76.6227 39.9316 76.5509 39.945 76.4982 39.909C76.4456 39.873 76.4322 39.8013 76.4683 39.7488L77.3712 38.4349C77.4073 38.3825 77.4792 38.3691 77.5318 38.4051C77.5845 38.4411 77.5979 38.5128 77.5618 38.5653L76.6588 39.8791Z" fill="#3A3768"/>
<path id="Vector_9" d="M76.522 59.8064L68.4668 54.2947C67.7743 53.8209 67.5979 52.8766 68.0727 52.1856L81.078 33.262C81.5529 32.571 82.4993 32.395 83.1918 32.8688L91.247 38.3805C91.9396 38.8543 92.116 39.7986 91.6411 40.4896L78.6358 59.4132C78.1609 60.1042 77.2145 60.2802 76.522 59.8064Z" fill="#3A3768"/>
<path id="Vector_10" d="M89.7993 38.2054C89.6984 38.1378 89.5747 38.1126 89.4552 38.1354C89.3357 38.1582 89.2301 38.2272 89.1613 38.3273L89.107 38.4018C89.0383 38.5019 88.9326 38.5709 88.8132 38.5937C88.6937 38.6166 88.57 38.5914 88.469 38.5237L83.9825 35.4558C83.8832 35.3861 83.8155 35.2802 83.7939 35.1611C83.7723 35.0419 83.7986 34.9191 83.8671 34.8191L83.9214 34.7446C83.9892 34.6439 84.0144 34.5205 83.9916 34.4012C83.9687 34.282 83.8995 34.1766 83.7992 34.108L82.9304 33.5052C82.7375 33.375 82.5008 33.326 82.272 33.3692C82.0431 33.4123 81.8406 33.544 81.7086 33.7355L68.7445 52.604C68.6143 52.7954 68.5654 53.0305 68.6087 53.2577C68.652 53.485 68.7838 53.6859 68.9753 53.8163L76.7877 59.1463C76.9795 59.2762 77.2151 59.325 77.4429 59.2818C77.6706 59.2386 77.8719 59.1071 78.0026 58.916L90.9736 40.0476C91.1038 39.8562 91.1526 39.6211 91.1094 39.3938C91.0661 39.1666 90.9343 38.9657 90.7428 38.8353L89.7993 38.2054Z" fill="#1D3357"/>
<path id="Vector_11" d="M86.8797 36.7779L85.7039 35.9734C85.6204 35.9163 85.5992 35.8024 85.6564 35.7191C85.7137 35.6357 85.8278 35.6145 85.9113 35.6716L87.0871 36.4761C87.1706 36.5332 87.1918 36.6471 87.1346 36.7304C87.0773 36.8138 86.9632 36.835 86.8797 36.7779Z" fill="#E6E8EC"/>
<path id="Vector_12" d="M87.5252 37.1965C87.4126 37.1965 87.3213 37.1055 87.3213 36.9932C87.3213 36.8809 87.4126 36.7899 87.5252 36.7899C87.6378 36.7899 87.7291 36.8809 87.7291 36.9932C87.7291 37.1055 87.6378 37.1965 87.5252 37.1965Z" fill="#E6E8EC"/>
<path id="Vector_13" d="M124.653 335.509C124.653 335.915 124.592 336.308 124.558 336.701C123.88 344.056 121.877 347.307 121.877 347.307C121.877 347.307 119.549 377.106 119.115 384.678C118.836 389.419 119.997 392.615 120.9 394.342C121.17 394.888 121.498 395.403 121.877 395.88L123.337 399.076L116.488 412.744L108.472 425.977L102.933 433.244C102.933 433.244 98.8609 433.827 97.9785 433.244C97.0961 432.662 93.6141 433.244 93.6141 433.244L90.4036 428.3L94.001 423.444L95.3585 421.616C96.5259 411.87 100.245 398.636 100.245 398.636V378.718C100.245 378.718 98.5622 333.064 99.7296 325.35C100.45 320.97 100.45 316.503 99.7296 312.123C99.7296 312.123 94.6322 297.725 95.6571 296.126C96.682 294.528 93.4716 288.852 93.4716 288.852L87.3628 271.643L87.0098 270.634L88.3673 267.336L122.753 263.001C122.753 263.001 122.481 265.71 122.183 270.011V270.106C122.006 272.598 121.83 275.632 121.687 279.019C121.212 290.41 121.171 305.703 123.337 317.385C124.526 323.349 124.968 329.437 124.653 335.509Z" fill="#FBBEBE"/>
<path id="Vector_14" opacity="0.1" d="M124.558 336.701L122.753 333.931C119.397 330.708 115.683 327.879 111.682 325.499C105.411 321.862 103.958 313.308 104.216 312.123C104.474 310.938 103.341 299.932 103.341 299.932V271.989L122.149 269.957C121.402 280.84 120.486 302.134 123.303 317.365C124.857 325.628 124.986 332.001 124.558 336.701Z" fill="black"/>
<path id="Vector_15" d="M183.23 406.492L181.77 419.868L174.637 424.081C174.637 424.081 168.073 424.812 169.241 418.995C169.347 418.371 169.383 417.737 169.349 417.105C169.057 410.001 162.684 395.006 162.684 395.006C162.684 395.006 156.575 378.867 151.464 373.916C147.012 369.609 129.14 342.383 124.654 335.509L123.629 333.931C120.27 330.709 116.553 327.88 112.551 325.499C106.286 321.862 104.827 313.308 105.085 312.123C105.343 310.938 104.216 299.932 104.216 299.932V271.989L122.149 270.079L138.317 268.352C138.317 268.352 137.957 271.508 137.495 275.524C136.715 282.161 135.615 291.148 135.256 292.056C134.665 293.512 133.355 302.215 133.355 302.215C133.355 302.215 134.38 306.136 135.106 309.773C135.833 313.41 145.288 323.447 145.288 323.447C157.383 333.477 169.478 368.952 169.478 368.952C172.662 375.819 176.266 376.984 178.139 377.079C178.559 377.112 178.981 377.073 179.388 376.964L182.015 381.766L183.23 406.492Z" fill="#FBBEBE"/>
<path id="Vector_16" opacity="0.1" d="M123.337 399.076L116.488 412.743L108.472 425.977L102.933 433.244C102.933 433.244 98.8609 433.826 97.9785 433.244C97.0961 432.662 93.6141 433.244 93.6141 433.244L90.4036 428.3L94.001 423.444C93.0575 425.611 92.2838 428.314 94.1911 428.442C97.3948 428.666 104.026 431.354 107.814 422.266C111.601 413.177 116.637 409.107 116.637 409.107L120.649 399.368L120.907 394.342C121.177 394.888 121.505 395.403 121.884 395.88L123.337 399.076Z" fill="black"/>
<path id="Vector_17" d="M123.845 410.705C123.845 410.705 117.872 425.537 118.09 429.831H114.594L115.178 416.881L115.124 416.956C114.485 417.802 108.241 426.2 108.031 430.406C108.031 430.406 106.449 434.727 106.497 435.912C106.493 435.944 106.493 435.976 106.497 436.007C106.646 437.023 100.965 441.825 92.7247 440.877C84.4847 439.929 83.039 438.77 83.039 438.77C83.039 438.77 82.9439 438.506 82.8217 438.093C82.4145 436.535 81.7561 432.743 84.4915 430.867C87.9192 428.51 95.0664 421.9 95.3515 421.649C95.1683 421.974 91.0618 429.099 94.1976 429.336C97.3335 429.573 104.033 432.248 107.82 423.16C111.608 414.071 116.644 410 116.644 410L120.655 400.261L120.954 394.444C120.954 394.444 125.61 396.841 126.045 401.569C126.479 406.296 123.845 410.705 123.845 410.705Z" fill="#3F3D56"/>
<path id="Vector_18" opacity="0.1" d="M118.816 416.665C118.402 420.146 117.377 426.553 116.848 429.831H114.594L115.178 416.881L115.124 416.956L115.32 416.38C115.32 416.38 119.427 411.87 118.816 416.665Z" fill="black"/>
<path id="Vector_19" opacity="0.1" d="M106.531 436.007C106.68 437.023 100.999 441.825 92.7587 440.877C84.5186 439.929 83.0729 438.77 83.0729 438.77C83.0729 438.77 82.9779 438.506 82.8557 438.093C87.987 438.154 101.684 438.093 106.524 435.933C106.524 435.958 106.526 435.983 106.531 436.007Z" fill="black"/>
<path id="Vector_20" opacity="0.1" d="M183.23 406.492L181.77 419.868L174.637 424.081C174.637 424.081 168.073 424.812 169.241 418.995C169.347 418.371 169.383 417.737 169.349 417.105C180.365 421.169 181.479 410.414 181.479 410.414L179.51 381.116C179.542 379.662 179.078 378.241 178.193 377.086C178.613 377.119 179.036 377.08 179.442 376.971L182.069 381.772L183.23 406.492Z" fill="black"/>
<path id="Vector_21" d="M198.461 402.781L196.377 404.271L195.4 404.948L187.017 395.209C187.017 395.209 187.017 406.33 188.551 409.018C189.589 410.847 189.752 414.2 189.752 416.164C189.752 417.085 189.718 417.701 189.718 417.701C189.718 417.701 187.166 423.119 175.947 429.817C170.91 432.817 167.971 432.303 166.268 430.826C164.17 429.011 163.926 425.747 163.926 425.747L168.677 417.701C180.338 422.442 181.499 411.274 181.499 411.274L179.53 381.975C179.388 377.539 176.571 376.754 176.571 376.754C189.637 376.253 190.241 386.913 190.241 386.913L198.461 402.781Z" fill="#3F3D56"/>
<path id="Vector_22" opacity="0.1" d="M196.37 404.271L195.4 404.962L187.017 395.223L187.967 392.385L196.37 404.271Z" fill="black"/>
<path id="Vector_23" opacity="0.1" d="M189.752 416.177C189.752 417.098 189.719 417.714 189.719 417.714C189.719 417.714 187.166 423.133 175.947 429.831C170.91 432.831 167.971 432.316 166.268 430.84C171.379 429.262 183.569 424.778 189.752 416.177Z" fill="black"/>
<path id="Vector_24" d="M169.655 257.522C163.173 259.75 159.283 245.758 157.437 236.629C156.582 232.369 156.181 229.179 156.181 229.179H168.114C168.114 229.179 168.793 230.784 169.722 233.243C172.37 240.462 176.748 255.077 169.655 257.522Z" fill="#FBBEBE"/>
<path id="Vector_25" d="M116.929 68.7158L108.784 88.485V105.498C108.784 105.938 88.5302 111.593 88.5302 111.593L83.2835 98.5084C83.2835 98.5084 81.6816 83.094 87.5053 70.2938C89.3555 66.114 89.6374 61.4097 88.2995 57.0398C88.2045 56.6967 88.1026 56.358 87.994 56.0239C86.589 51.9151 84.3941 48.1193 81.5323 44.8492C81.5323 44.8492 95.4264 40.2506 104.97 39.3159C110.977 38.7335 115.273 39.6004 113.298 43.9755C112.093 46.7478 111.553 49.7627 111.723 52.7799C111.723 53.0508 111.723 53.3284 111.777 53.5993C112.375 61.7535 116.929 68.7158 116.929 68.7158Z" fill="#FBBEBE"/>
<path id="Vector_26" opacity="0.1" d="M113.277 43.9892C112.072 46.7615 111.533 49.7764 111.703 52.7936C111.703 53.0645 111.703 53.3422 111.757 53.6131C111.742 53.6323 111.724 53.6484 111.703 53.6605C108.264 56.7207 103.931 58.5985 99.3425 59.0176C98.7113 59.0786 98.0665 59.1057 97.4217 59.1057C94.2604 59.1167 91.1367 58.4225 88.2789 57.0739C88.1839 56.7307 88.082 56.3921 87.9734 56.058C86.5684 51.9492 84.3736 48.1533 81.5117 44.8832C81.5117 44.8832 95.4058 40.2846 104.949 39.35C110.956 38.7472 115.253 39.6141 113.277 43.9892Z" fill="black"/>
<path id="Vector_27" d="M119.651 34.968C119.67 38.3318 118.97 41.6611 117.6 44.7345C116.23 47.8079 114.219 50.5551 111.703 52.7935C108.262 55.8492 103.93 57.7243 99.3426 58.1438C98.7114 58.2048 98.0666 58.2319 97.4218 58.2319C94.1451 58.2353 90.9119 57.4844 87.9735 56.0376C84.0875 54.0617 80.8315 51.0426 78.5722 47.3201C76.3129 43.5976 75.1401 39.3197 75.1859 34.968C75.1671 30.0284 76.6823 25.2042 79.5231 21.1587C81.5193 18.2555 84.1896 15.877 87.3062 14.226C90.4228 12.575 93.8933 11.7005 97.4218 11.6771C109.694 11.6974 119.651 22.1136 119.651 34.968Z" fill="#FBBEBE"/>
<path id="Vector_28" d="M89.236 110.151C89.236 110.151 102.811 97.7906 106.578 86.5955C108.98 79.6039 112.004 72.8406 115.612 66.3861L114.608 64.2933C114.608 64.2933 109.056 79.0373 104.976 80.7778C100.897 82.5184 91.4012 92.5554 90.546 99.5379L89.9623 78.3058L89.0459 64.2933C89.0459 64.2933 82.0955 79.0373 81.5118 85.8708C80.9281 92.7044 81.6611 105.064 83.8467 107.679C84.5142 108.453 85.3411 109.075 86.2711 109.501C87.2011 109.928 88.2124 110.149 89.236 110.151Z" fill="#1D3357"/>
<path id="Vector_29" d="M117.649 63.8872L117.554 63.7991L117.649 63.8872Z" stroke="#00FFFF" stroke-miterlimit="10"/>
<path id="Vector_30" opacity="0.1" d="M138.35 268.352C138.35 268.352 137.991 271.508 137.529 275.524C132.724 277.935 127.246 278.91 121.687 278.991C115.813 278.998 109.959 278.303 104.25 276.919C98.4968 275.551 92.8451 273.789 87.3355 271.643L86.9826 270.634L88.3401 267.336L122.753 263.001C122.753 263.001 122.481 265.71 122.183 270.011V270.106L138.35 268.352Z" fill="black"/>
<path id="Vector_31" d="M144.174 250.54C144.079 250.756 143.977 251.014 143.882 251.292C142.056 256.642 140.679 272.788 140.679 272.788C121.443 286.096 87.1251 270.39 85.0957 269.95C83.0662 269.51 85.0957 266.245 85.0957 266.245C85.0957 266.245 78.6 238.546 79.2516 233.527C79.9032 228.509 77.7244 207.9 77.7244 207.9L76.6656 199.339L73.7538 175.046L96.0507 170.251C96.0507 170.251 123.33 173.014 132.025 176.244C132.429 176.39 132.826 176.558 133.212 176.746C135.88 178.059 138.262 182.401 140.183 187.277C141.357 190.237 142.355 193.372 143.156 196.19C144.544 201.065 145.278 206.103 145.342 211.171C145.532 223.151 145.647 247.275 144.174 250.54Z" fill="#3F3D56"/>
<path id="Vector_32" opacity="0.1" d="M144.174 250.54C144.079 250.757 143.977 251.014 143.882 251.292C142.634 242.663 141.453 216.663 141.697 208.157C141.989 197.998 131.203 176.454 131.203 176.454L132.059 176.272C132.463 176.417 132.86 176.585 133.246 176.773C137.536 178.886 141.079 188.835 143.183 196.217C144.573 201.092 145.31 206.13 145.376 211.198C145.532 223.151 145.647 247.282 144.174 250.54Z" fill="black"/>
<path id="Vector_33" opacity="0.1" d="M140.217 187.304C139.661 187.67 128.38 194.916 109.422 202.996C89.9624 211.279 87.8515 177.619 87.8515 177.619C86.1615 180.549 84.9085 183.709 84.1319 186.999C83.0527 191.3 78.8173 196.799 76.6657 199.366L73.7538 175.073L96.0508 170.278C96.0508 170.278 123.33 173.041 132.025 176.271C132.429 176.417 132.826 176.585 133.212 176.773C135.914 178.087 138.296 182.407 140.217 187.304Z" fill="black"/>
<path id="Vector_34" d="M151.464 114.681C150.154 117.587 151.464 120.716 151.464 120.716C151.464 120.716 132.154 137.363 131.203 134.525C130.253 131.687 129.846 139.327 129.846 139.327C129.846 139.327 127.945 141.291 128.38 142.307C128.814 143.323 128.02 149.14 128.02 149.14C128.02 149.14 127.002 152.628 127.728 153.36C128.454 154.091 129.547 160.132 129.547 160.132L132.154 169.79L132.608 170.169C136.681 173.508 137.204 179.326 138.371 180.782C139.538 182.238 140.258 186.451 140.258 186.451C140.258 186.451 128.896 193.867 109.443 202.156C89.9896 210.446 87.8719 176.779 87.8719 176.779C86.1779 179.697 84.918 182.846 84.132 186.126C82.6726 191.943 75.4575 199.942 75.4575 199.942C68.4596 198.777 62.4934 179.658 64.0206 178.567C65.5477 177.477 69.8782 163.519 69.8782 163.519C76.7268 153.996 70.5569 134.214 70.5569 134.214C70.5569 134.214 64.2921 118.291 64.3667 115.677C64.4414 113.063 62.9074 112.968 62.9074 112.968L58.4616 82.5794C58.4616 82.5794 64.5704 80.0329 65.093 77.9198C65.6156 75.8068 74.3512 73.4906 74.3512 73.4906C74.3512 73.4906 73.7606 72.6169 77.4802 71.3775C78.7856 70.8356 79.9991 70.0954 81.0776 69.1832C83.9178 66.8767 86.6045 64.3881 89.1208 61.7333C89.1208 61.7333 89.4941 70.3887 87.6818 75.3936C85.8695 80.3986 84.546 95.1832 84.4035 96.2736C84.2609 97.364 89.6502 108.776 89.6502 108.776L92.5078 104.868C97.0147 98.7185 105.316 87.4218 105.893 86.8935C106.7 86.1689 113.685 66.7247 114.655 64.3001C115.015 63.4129 115.517 63.1285 116.013 63.1217C116.403 63.1321 116.783 63.2543 117.106 63.4739C117.276 63.5783 117.437 63.696 117.588 63.8261L117.757 64.2934L117.798 64.3882C117.946 64.7867 118.118 65.1757 118.314 65.5531C122.997 74.7232 140.468 81.2858 140.468 81.2858C146.075 83.2499 147.025 87.2254 147.025 87.2254C147.025 87.2254 146.007 90.7404 148.26 92.4877C150.514 94.235 149.57 99.03 149.57 99.03C149.57 99.03 152.632 105.938 151.844 106.954C151.227 107.827 150.687 108.752 150.229 109.717C150.229 109.717 152.774 111.749 151.464 114.681Z" fill="#65617D"/>
<path id="Vector_35" opacity="0.1" d="M94.8494 118.657C94.8494 118.657 65.0454 123.31 66.4301 110.53C67.6925 98.8743 78.6476 74.3575 80.5888 70.0908C83.4306 67.7835 86.1195 65.295 88.6388 62.6409C88.6388 62.6409 89.0053 71.2963 87.1999 76.3012C85.3944 81.3062 84.064 96.084 83.9215 97.1744C83.779 98.2648 89.1682 109.683 89.1682 109.683L94.8494 118.657Z" fill="black"/>
<path id="Vector_36" opacity="0.1" d="M95.7249 117.79C95.7249 117.79 65.9209 122.436 67.3055 109.663C68.568 98.0073 79.523 73.4905 81.4643 69.2238C84.3045 66.9173 86.9912 64.4287 89.5075 61.7739C89.5075 61.7739 89.8808 70.4293 88.0753 75.4342C86.2698 80.4392 84.9395 95.2238 84.7901 96.3142C84.6408 97.4046 90.0369 108.816 90.0369 108.816L95.7249 117.79Z" fill="black"/>
<path id="Vector_37" d="M95.2838 117.79C95.2838 117.79 65.4866 122.436 66.8713 109.663C68.1269 98.0073 79.0888 73.4905 81.03 69.2238C83.8702 66.9173 86.557 64.4287 89.0733 61.7739C89.0733 61.7739 89.4465 70.4293 87.6343 75.4342C85.822 80.4392 84.4985 95.2238 84.3559 96.3142C84.2134 97.4046 89.6027 108.816 89.6027 108.816L95.2838 117.79Z" fill="#65617D"/>
<path id="Vector_38" opacity="0.1" d="M119.162 66.4336C119.162 66.5216 119.115 67.7881 119.054 69.7386C118.938 73.5042 118.755 79.8975 118.66 85.9184C118.551 92.8941 118.551 99.3145 118.891 100.412C119.692 102.958 115.762 109.284 115.762 109.284L96.1594 118.657L90.8855 110.293L93.3358 105.735C97.8427 99.5855 106.144 88.2888 106.721 87.7605C106.979 87.5302 107.875 85.3766 108.995 82.4779C111.384 76.3216 114.825 66.8129 115.483 65.1671C115.768 64.6142 116.254 64.1904 116.841 63.9819C117.039 63.9458 117.242 63.9597 117.433 64.0224C117.624 64.0851 117.796 64.1946 117.934 64.3409C118.204 64.6081 118.433 64.914 118.612 65.2484V65.2823C118.813 65.6436 118.981 66.0221 119.115 66.4133L119.162 66.4336Z" fill="black"/>
<path id="Vector_39" opacity="0.1" d="M117.846 65.5599C117.846 65.6411 117.798 66.9144 117.744 68.8581C117.628 72.6237 117.445 79.017 117.35 85.0379C117.235 92.0136 117.235 98.434 117.581 99.5312C118.382 102.078 114.445 108.403 114.445 108.403L94.8494 117.783L89.562 109.419L92.0123 104.861C96.5192 98.7117 104.814 87.415 105.397 86.8868C105.655 86.6565 106.544 84.5028 107.671 81.6041C110.06 75.4546 113.502 65.9391 114.16 64.2934C114.446 63.7426 114.931 63.3212 115.517 63.1149C115.715 63.0747 115.919 63.086 116.11 63.1477C116.302 63.2094 116.474 63.3194 116.61 63.4671C116.882 63.7358 117.111 64.0441 117.289 64.3814C117.49 64.7448 117.659 65.1257 117.791 65.5192L117.846 65.5599Z" fill="black"/>
<path id="Vector_40" d="M118.286 65.5598C118.286 65.641 118.239 66.9143 118.178 68.858C118.062 72.6236 117.886 79.0169 117.784 85.0378C117.676 92.0135 117.676 98.434 118.022 99.5311C118.816 102.078 114.886 108.403 114.886 108.403L95.2836 117.783L90.0165 109.412C90.0165 109.412 90.9464 107.665 92.46 104.854C96.9669 98.7049 105.268 87.4082 105.845 86.8799C106.103 86.6496 106.999 84.4959 108.119 81.5973C110.508 75.4478 113.949 65.9323 114.608 64.2865C114.892 63.7349 115.378 63.3131 115.965 63.1081C116.162 63.0692 116.366 63.0811 116.557 63.1427C116.749 63.2044 116.921 63.3136 117.058 63.4603C117.332 63.7269 117.561 64.0355 117.737 64.3746C117.938 64.738 118.106 65.1188 118.239 65.5124L118.286 65.5598Z" fill="#65617D"/>
<path id="Vector_41" opacity="0.1" d="M92.5891 124.915C91.682 124.915 90.9466 123.644 90.9466 122.077C90.9466 120.51 91.682 119.239 92.5891 119.239C93.4963 119.239 94.2317 120.51 94.2317 122.077C94.2317 123.644 93.4963 124.915 92.5891 124.915Z" fill="black"/>
<path id="Vector_42" d="M92.5891 124.475C91.682 124.475 90.9466 123.204 90.9466 121.637C90.9466 120.07 91.682 118.799 92.5891 118.799C93.4963 118.799 94.2317 120.07 94.2317 121.637C94.2317 123.204 93.4963 124.475 92.5891 124.475Z" fill="#1D3357"/>
<path id="Vector_43" opacity="0.1" d="M88.3741 155.337C87.467 155.337 86.7316 154.067 86.7316 152.5C86.7316 150.932 87.467 149.662 88.3741 149.662C89.2813 149.662 90.0167 150.932 90.0167 152.5C90.0167 154.067 89.2813 155.337 88.3741 155.337Z" fill="black"/>
<path id="Vector_44" opacity="0.1" d="M90.0097 139.232C89.1025 139.232 88.3671 137.962 88.3671 136.394C88.3671 134.827 89.1025 133.557 90.0097 133.557C90.9168 133.557 91.6522 134.827 91.6522 136.394C91.6522 137.962 90.9168 139.232 90.0097 139.232Z" fill="black"/>
<path id="Vector_45" opacity="0.1" d="M86.7316 168.862C85.8244 168.862 85.089 167.592 85.089 166.024C85.089 164.457 85.8244 163.187 86.7316 163.187C87.6387 163.187 88.3741 164.457 88.3741 166.024C88.3741 167.592 87.6387 168.862 86.7316 168.862Z" fill="black"/>
<path id="Vector_46" d="M88.3741 154.904C87.467 154.904 86.7316 153.634 86.7316 152.066C86.7316 150.499 87.467 149.229 88.3741 149.229C89.2813 149.229 90.0167 150.499 90.0167 152.066C90.0167 153.634 89.2813 154.904 88.3741 154.904Z" fill="#1D3357"/>
<path id="Vector_47" d="M90.0097 138.799C89.1025 138.799 88.3671 137.528 88.3671 135.961C88.3671 134.394 89.1025 133.123 90.0097 133.123C90.9168 133.123 91.6522 134.394 91.6522 135.961C91.6522 137.528 90.9168 138.799 90.0097 138.799Z" fill="#1D3357"/>
<path id="Vector_48" d="M86.7316 168.429C85.8244 168.429 85.089 167.158 85.089 165.591C85.089 164.024 85.8244 162.753 86.7316 162.753C87.6387 162.753 88.3741 164.024 88.3741 165.591C88.3741 167.158 87.6387 168.429 86.7316 168.429Z" fill="#1D3357"/>
<path id="Vector_49" d="M122.108 86.1959C121.68 85.8708 119.698 85.4238 117.784 85.0445C115.87 84.6653 113.916 84.3673 113.916 84.3673C112.275 82.9409 110.267 82.0023 108.119 81.6582C110.508 75.5087 113.949 65.9932 114.608 64.3475C114.893 63.7958 115.378 63.3741 115.965 63.1691C116.162 63.1302 116.366 63.1421 116.558 63.2037C116.749 63.2653 116.921 63.3746 117.058 63.5212C117.332 63.7878 117.561 64.0965 117.737 64.4355L118.137 68.8851L118.246 70.0771C118.246 70.0771 121.416 71.601 120.757 74.1407C120.099 76.6804 122.984 86.8528 122.108 86.1959Z" fill="#1D3357"/>
<path id="Vector_50" opacity="0.1" d="M89.0461 64.7336C89.0461 64.7336 78.2676 80.1954 78.3829 83.2498C78.4983 86.3043 80.1273 83.2498 80.1273 83.2498C80.1273 83.2498 84.6817 69.7521 89.9963 79.9787L89.0461 64.7336Z" fill="black"/>
<path id="Vector_51" d="M89.0461 64.2933C89.0461 64.2933 78.2676 79.7619 78.3829 82.8164C78.4983 85.8708 80.1273 82.8164 80.1273 82.8164C80.1273 82.8164 84.6817 69.3186 89.9963 79.5384L89.0461 64.2933Z" fill="#1D3357"/>
<path id="Vector_52" d="M60.0158 84.2048L58.414 82.6335C58.414 82.6335 54.2261 84.2048 53.588 86.2366C52.95 88.2683 51.1853 87.7401 51.1853 87.7401C50.4269 88.1351 49.6187 88.4267 48.7825 88.607C48.1037 88.607 47.1399 91.6614 47.1399 91.6614C47.1399 91.6614 40.2574 93.4087 39.6736 93.5171C39.0899 93.6255 12.1367 118.623 12.1367 118.623C12.1367 118.623 27.6529 121 30.0557 120.018C32.4585 119.036 34.8681 118.867 36.0695 118.623C37.2708 118.379 64.3734 112.602 64.3734 112.602L60.0158 84.2048Z" fill="#65617D"/>
<path id="Vector_53" opacity="0.1" d="M56.6288 70.6596L53.7916 74.2626L41.2211 67.1379L43.7257 64.1985C45.9655 67.5916 49.9566 71.2421 56.6288 70.6596Z" fill="black"/>
<path id="Vector_54" d="M16.1889 117.275L12.1504 118.63C12.1504 118.63 2.30844 117.736 2.96683 113.483C3.62522 109.23 7.88778 101.441 7.88778 101.441L13.9965 91.0181C13.9965 91.0181 16.4061 88.16 16.1821 87.2457C15.9582 86.3314 19.0261 84.8008 19.0261 84.8008C19.0261 84.8008 20.7773 82.5117 20.8859 81.4145C20.9945 80.3174 30.8364 72.0141 30.8364 72.0141C30.8364 72.0141 34.2301 69.1764 33.4631 59.5797H41.2213C41.2213 59.5797 44.7847 73.8698 58.4141 71.2488L39.6873 93.4968L16.1889 117.275Z" fill="#65617D"/>
<path id="Vector_55" opacity="0.1" d="M169.722 233.202C166.008 235.404 161.771 236.573 157.451 236.588C156.595 232.328 156.195 229.138 156.195 229.138H168.114C168.114 229.138 168.82 230.771 169.722 233.202Z" fill="black"/>
<path id="Vector_56" d="M148.002 117.79L151.464 120.696C151.464 120.696 150.785 122.294 151.966 123.168C153.147 124.041 151.966 130.692 151.966 130.692C151.998 131.586 152.333 132.443 152.917 133.123C153.901 134.288 152.917 145.632 152.917 145.632C153.193 146.196 153.606 146.683 154.118 147.048C154.797 147.373 156.745 158.067 156.195 158.609C155.645 159.15 164.503 184.893 164.503 184.893C164.503 184.893 164.286 189.363 165.487 190.128C166.688 190.894 166.906 196.014 166.906 196.014C166.906 196.014 166.363 200.592 168.548 201.466C170.734 202.339 171.168 217.828 171.168 217.828C171.168 217.828 174.121 225.786 175.872 227.093C175.872 227.093 167.564 238.437 151.498 235.166C151.498 235.166 150.819 220.876 148.878 215.207L143.081 186.309C143.081 186.309 139.586 173.982 138.276 167.223C136.966 160.464 131.203 134.505 131.203 134.505V125.24L148.002 117.79Z" fill="#65617D"/>
<path id="Vector_57" opacity="0.1" d="M165.046 198.411C164.622 198.411 164.279 197.729 164.279 196.887C164.279 196.046 164.622 195.363 165.046 195.363C165.469 195.363 165.813 196.046 165.813 196.887C165.813 197.729 165.469 198.411 165.046 198.411Z" fill="black"/>
<path id="Vector_58" opacity="0.1" d="M168.107 211.387C167.683 211.387 167.34 210.705 167.34 209.863C167.34 209.022 167.683 208.34 168.107 208.34C168.531 208.34 168.874 209.022 168.874 209.863C168.874 210.705 168.531 211.387 168.107 211.387Z" fill="black"/>
<path id="Vector_59" opacity="0.1" d="M170.401 223.273C169.978 223.273 169.634 222.591 169.634 221.749C169.634 220.908 169.978 220.226 170.401 220.226C170.825 220.226 171.168 220.908 171.168 221.749C171.168 222.591 170.825 223.273 170.401 223.273Z" fill="black"/>
<path id="Vector_60" opacity="0.1" d="M166.58 204.954C166.156 204.954 165.813 204.271 165.813 203.43C165.813 202.588 166.156 201.906 166.58 201.906C167.003 201.906 167.347 202.588 167.347 203.43C167.347 204.271 167.003 204.954 166.58 204.954Z" fill="black"/>
<path id="Vector_61" opacity="0.1" d="M169.641 217.605C169.217 217.605 168.874 216.922 168.874 216.081C168.874 215.239 169.217 214.557 169.641 214.557C170.065 214.557 170.408 215.239 170.408 216.081C170.408 216.922 170.065 217.605 169.641 217.605Z" fill="black"/>
<path id="Vector_62" d="M165.046 197.978C164.622 197.978 164.279 197.295 164.279 196.454C164.279 195.612 164.622 194.93 165.046 194.93C165.469 194.93 165.813 195.612 165.813 196.454C165.813 197.295 165.469 197.978 165.046 197.978Z" fill="#1D3357"/>
<path id="Vector_63" d="M168.107 210.954C167.683 210.954 167.34 210.272 167.34 209.43C167.34 208.589 167.683 207.906 168.107 207.906C168.531 207.906 168.874 208.589 168.874 209.43C168.874 210.272 168.531 210.954 168.107 210.954Z" fill="#1D3357"/>
<path id="Vector_64" d="M170.401 222.84C169.978 222.84 169.634 222.158 169.634 221.316C169.634 220.474 169.978 219.792 170.401 219.792C170.825 219.792 171.168 220.474 171.168 221.316C171.168 222.158 170.825 222.84 170.401 222.84Z" fill="#1D3357"/>
<path id="Vector_65" d="M166.58 204.52C166.156 204.52 165.813 203.838 165.813 202.996C165.813 202.155 166.156 201.472 166.58 201.472C167.003 201.472 167.347 202.155 167.347 202.996C167.347 203.838 167.003 204.52 166.58 204.52Z" fill="#1D3357"/>
<path id="Vector_66" d="M169.641 217.171C169.217 217.171 168.874 216.489 168.874 215.647C168.874 214.806 169.217 214.124 169.641 214.124C170.065 214.124 170.408 214.806 170.408 215.647C170.408 216.489 170.065 217.171 169.641 217.171Z" fill="#1D3357"/>
<path id="Vector_67" opacity="0.1" d="M109.626 138.799C109.626 138.799 121.436 136.767 125.047 138.799C128.658 140.831 109.626 138.799 109.626 138.799Z" fill="black"/>
<path id="Vector_68" opacity="0.1" d="M117.567 150.319C117.567 150.319 123.676 140.397 125.502 143.546C127.328 146.696 117.567 150.319 117.567 150.319Z" fill="black"/>
<path id="Vector_69" opacity="0.1" d="M146.143 161.338C146.468 161.663 159.48 176.495 159.365 177.477C159.249 178.459 146.143 161.338 146.143 161.338Z" fill="black"/>
<path id="Vector_70" opacity="0.1" d="M29.4179 108.769C29.5265 109.101 32.9201 115.86 30.6735 116.625C28.427 117.391 29.4179 108.769 29.4179 108.769Z" fill="black"/>
<path id="Vector_71" opacity="0.1" d="M39.5786 99.3889C39.5786 99.3889 44.7167 101.245 45.5923 102.098C46.4679 102.951 39.5786 99.3889 39.5786 99.3889Z" fill="black"/>
<path id="Vector_72" opacity="0.1" d="M22.2026 94.3638C24.6054 94.2554 33.1305 91.9595 33.4631 92.7248C33.7957 93.4901 22.2026 94.3638 22.2026 94.3638Z" fill="black"/>
<path id="Vector_73" opacity="0.1" d="M111.703 52.7934C112.062 61.2727 116.929 68.7158 116.929 68.7158L108.784 88.485V94.2349C103.245 94.8174 97.4082 93.6186 93.3764 89.8598C96.5733 88.8169 98.5213 85.6473 100.008 82.6335C101.742 79.094 103.223 75.4367 104.44 71.689C105.255 69.1763 105.675 65.8307 103.435 64.4152C102.411 63.7379 101.053 63.7379 100.103 62.9794C98.8743 61.9974 98.7928 60.1349 99.2136 58.6246C99.2611 58.4621 99.3087 58.2995 99.363 58.1438C100.354 55.2045 102.689 52.8815 104.114 50.1047C105.779 46.7571 106.088 42.8982 104.976 39.3295C104.614 38.1336 104.086 36.9938 103.408 35.9432C102.042 33.8709 100.166 32.1826 97.9589 31.0396C95.7523 29.8967 93.2889 29.3371 90.8039 29.4144C89.5346 29.4686 87.9803 29.5499 87.3355 28.4663C86.8332 27.64 87.193 26.5699 87.0301 25.615C86.5481 22.7028 82.9575 22.0594 79.5638 21.1519C81.56 18.2486 84.2303 15.8701 87.3469 14.2191C90.4634 12.5682 93.934 11.6937 97.4625 11.6702C109.734 11.6702 119.692 22.0865 119.692 34.9409C119.709 38.3123 119.005 41.6487 117.628 44.7273C116.25 47.8058 114.23 50.5557 111.703 52.7934Z" fill="black"/>
<path id="Vector_74" d="M87.8787 25.622C88.0416 26.5769 87.6818 27.6538 88.1773 28.48C88.8561 29.5569 90.3833 29.4756 91.6457 29.4214C94.1369 29.3121 96.6132 29.8568 98.8274 31.0012C101.042 32.1455 102.916 33.8494 104.264 35.9428C105.612 38.0361 106.386 40.4457 106.508 42.9308C106.631 45.4159 106.098 47.8896 104.963 50.1049C103.47 53.0307 100.958 55.4553 100.069 58.6181C99.6482 60.1351 99.7296 62.0044 100.958 62.9796C101.902 63.7449 103.266 63.7652 104.291 64.4154C106.531 65.8309 106.11 69.1562 105.295 71.6892C104.079 75.4381 102.595 79.0956 100.856 82.6337C99.3767 85.6475 97.4626 88.8171 94.2318 89.86C98.9016 94.208 105.974 95.1427 112.219 93.822C118.463 92.5014 124.104 89.2573 129.622 86.0471C131.889 84.7332 134.285 83.2771 135.391 80.9067C136.898 77.6829 135.554 73.9377 134.597 70.5175C134.266 69.6649 134.225 68.727 134.482 67.8491C134.909 66.8197 136.023 66.2846 137.054 65.8173C141.412 64.0023 132.982 62.431 137.054 60.02C141.127 57.6089 144.833 54.3039 146.692 49.9694C149.862 42.5941 147.005 33.7965 141.941 27.5589C136.878 21.3214 142.81 16.9734 136.335 12.2122C132.208 9.17134 128.19 5.8934 123.601 3.61781C118.937 1.37453 113.831 0.193229 108.654 0.159262C103.476 0.125296 98.3551 1.23952 93.6616 3.42141C88.9579 5.6225 85.1229 9.17134 80.5074 11.5485C78.2336 12.7202 73.2448 14.2034 74.5141 17.4542C76.4349 22.4118 87.0234 20.4816 87.8787 25.622Z" fill="#3F3D56"/>
<path id="Vector_75" opacity="0.1" d="M133.525 205.326C133.525 205.326 117.235 220.158 120.703 220.158C124.171 220.158 133.525 205.326 133.525 205.326Z" fill="black"/>
<path id="Vector_76" opacity="0.1" d="M135.86 211.144C135.86 211.144 125.074 221.303 128.278 222.19C131.482 223.077 135.86 211.144 135.86 211.144Z" fill="black"/>
<path id="Vector_77" opacity="0.1" d="M140.319 186.593C140.319 186.593 139.423 187.175 137.699 188.205C134.773 185.279 130.484 180.572 129.092 176.779C126.907 170.813 127.782 153.516 127.782 153.516C128.515 154.24 129.608 160.288 129.608 160.288L132.208 169.946L132.663 170.325C136.735 173.664 137.258 179.482 138.425 180.938C139.593 182.394 140.319 186.593 140.319 186.593Z" fill="black"/>
<path id="Vector_78" d="M308.887 422.144C305.626 422.144 302.982 419.506 302.982 416.252C302.982 412.997 305.626 410.359 308.887 410.359C312.148 410.359 314.792 412.997 314.792 416.252C314.792 419.506 312.148 422.144 308.887 422.144Z" fill="#3F3D56"/>
<path id="Vector_79" d="M257.078 394.43C253.816 394.43 251.173 391.792 251.173 388.538C251.173 385.284 253.816 382.646 257.078 382.646C260.339 382.646 262.983 385.284 262.983 388.538C262.983 391.792 260.339 394.43 257.078 394.43Z" fill="#3F3D56"/>
<path id="Vector_80" d="M343.557 370.862C336.431 370.503 318.946 370.069 315.444 368.322C311.941 366.575 273.911 326.224 273.911 326.224L262.548 309.651L243.964 301.802L228.448 284.118L216.197 276.303C216.197 276.303 218.83 277.129 219.047 274.522C219.103 273.849 219.268 273.19 219.536 272.571C219.837 271.812 220.325 271.141 220.955 270.621C221.384 270.267 221.902 270.038 222.453 269.959C223.004 269.88 223.566 269.955 224.077 270.174C226.914 271.264 264.232 277.59 264.232 277.59C264.232 277.59 275.879 279.554 286.59 293.729C292.718 301.92 299.53 309.58 306.952 316.627L336.03 351.309C336.03 351.309 350.684 371.221 343.557 370.862Z" fill="#1D3357"/>
<path id="Vector_81" d="M343.646 379.443L314.792 416.252L313.76 415.771L259.053 390.326L236.756 367.861C236.756 367.861 188.442 317.067 184.73 309.407C181.017 301.747 195.399 289.123 195.399 289.123C206.721 269.273 212.925 275.382 212.925 275.382L267.754 290.424H267.795L268.073 290.769C272.329 295.286 320.534 346.48 336.247 362.511L336.281 362.552C338.514 364.834 340.089 366.399 340.768 367.001C346.483 372.04 343.646 379.443 343.646 379.443Z" fill="#1D3357"/>
<path id="Vector_82" opacity="0.1" d="M343.646 379.442L314.792 416.252L313.76 415.771C298.495 396.652 260.858 349.88 250.304 340.344C236.973 328.289 240.245 320.771 240.245 320.771L251.614 305.289C260.187 289.428 267.157 290.335 267.748 290.451H267.789L268.074 290.769L336.268 362.518L336.302 362.558C338.535 364.841 340.109 366.405 340.788 367.008C346.483 372.04 343.646 379.442 343.646 379.442Z" fill="black"/>
<path id="Vector_83" d="M211.615 288.493L216.427 284.349C216.427 284.349 227.348 281.965 236.532 292.638L233.254 296.566C233.254 296.566 224.952 286.97 211.615 288.493Z" fill="#3F3D56"/>
<path id="Vector_84" opacity="0.1" d="M211.615 288.493L216.427 284.349C216.427 284.349 227.348 281.965 236.532 292.638L233.254 296.566C233.254 296.566 224.952 286.97 211.615 288.493Z" fill="black"/>
<path id="Vector_85" d="M203.524 312.489L156.752 251.874L159.589 250.763L207.244 310.308L203.524 312.489Z" fill="#65617D"/>
<path id="Vector_86" d="M219.699 317.5L172.526 257.089L174.888 254.034L224.077 314.886L219.699 317.5Z" fill="#65617D"/>
<path id="Vector_87" d="M173.143 258.687C173.652 258.525 178.248 254.542 178.248 254.542C174.77 249.255 169.873 245.05 164.116 242.406C159.046 240.09 153.371 238.281 151.064 240.374C151.064 240.374 147.059 245.271 151.797 249.077L155.19 248.224C155.19 248.224 160.295 242.555 168.603 253.31L173.143 258.687Z" fill="#3F3D56"/>
<path id="Vector_88" d="M151.797 249.07L157.987 255.416L162.65 253.303L157.22 246.402L154.342 247.269L151.797 249.07Z" fill="#3F3D56"/>
<path id="Vector_89" opacity="0.1" d="M295.332 312.482C294.973 312.116 274.006 291.074 267.938 286.746C262.63 282.967 228.502 274.698 219.536 272.571C219.837 271.812 220.325 271.141 220.955 270.62C229.507 272.923 257.057 280.332 265.752 282.534C276.022 285.127 295.034 312.055 295.332 312.482Z" fill="black"/>
<path id="Vector_90" opacity="0.1" d="M217.731 276.723L267.653 289.902L343.558 370.862V368.539L269.105 289.469L217.731 276.723Z" fill="black"/>
<path id="Vector_91" opacity="0.1" d="M115.076 93.1243C108.825 94.445 101.752 93.5103 97.0824 89.1623C100.279 88.1126 102.227 84.9498 103.714 81.936C105.45 78.3977 106.932 74.7403 108.146 70.9914C108.967 68.4788 109.388 65.1331 107.148 63.7177C106.117 63.0404 104.759 63.0404 103.809 62.2819C102.58 61.2999 102.499 59.4374 102.926 57.9203C103.809 54.7575 106.32 52.3329 107.82 49.4072C108.955 47.1919 109.488 44.7181 109.366 42.233C109.243 39.7479 108.469 37.3384 107.121 35.2451C105.774 33.1517 103.899 31.4478 101.685 30.3035C99.4706 29.1591 96.9943 28.6144 94.5031 28.7237C93.2406 28.7779 91.6795 28.8591 91.0347 27.7823C90.5392 26.9493 90.8921 25.8792 90.736 24.9242C89.874 19.7838 79.2923 21.714 77.3782 16.7971C76.1157 13.5463 81.0978 12.0563 83.3716 10.8914C87.9871 8.50747 91.822 4.95863 96.5258 2.76431C97.2995 2.40536 98.0937 2.08705 98.8946 1.76874C97.1863 2.2526 95.5183 2.86851 93.9058 3.61088C89.2021 5.81198 85.3671 9.36082 80.7516 11.738C78.4778 12.9164 73.4889 14.3996 74.7582 17.6505C76.6655 22.5674 87.254 20.6372 88.1092 25.7776C88.2721 26.7325 87.9124 27.8094 88.4079 28.6356C89.0866 29.7125 90.6138 29.6312 91.8763 29.577C94.3677 29.4701 96.8436 30.0173 99.0567 31.1638C101.27 32.3103 103.143 34.0162 104.489 36.1109C105.834 38.2056 106.606 40.616 106.726 43.1013C106.846 45.5866 106.311 48.0598 105.173 50.2741C103.68 53.2066 101.168 55.6312 100.279 58.794C99.8584 60.3111 99.9399 62.1803 101.168 63.1556C102.112 63.9209 103.469 63.9412 104.501 64.5913C106.741 66.0068 106.32 69.3322 105.506 71.8651C104.3 75.6132 102.828 79.2706 101.101 82.8096C99.6209 85.8234 97.6728 88.9862 94.4759 90.036C99.1457 94.384 106.218 95.3118 112.463 93.9979C114.137 93.641 115.782 93.1588 117.384 92.5554C116.61 92.7721 115.85 92.9618 115.076 93.1243Z" fill="black"/>
</g>
<defs>
<linearGradient id="paint0_linear" x1="172.668" y1="440.999" x2="172.668" y2="-0.00565147" gradientUnits="userSpaceOnUse">
<stop stop-color="#808080" stop-opacity="0.25"/>
<stop offset="0.54" stop-color="#808080" stop-opacity="0.12"/>
<stop offset="1" stop-color="#808080" stop-opacity="0.1"/>
</linearGradient>
</defs>
</svg>
