<svg width="80" height="80" viewBox="0 0 80 80" fill="none" xmlns="http://www.w3.org/2000/svg">
<g id="Entrada">
<g id="entrada-icon-blue">
<path id="Vector" d="M76.9908 1.18701H51.0987C49.4368 1.18701 48.0897 2.65708 48.0897 4.47043V13.129C48.6484 13.2873 49.1893 13.5621 49.6813 13.9608C51.7276 15.62 52.1538 18.7751 50.6332 21.0081L48.0898 24.7427V34.7567H55.5883V34.549C55.5883 31.6429 58.6661 30.0012 60.7679 31.7874L69.0295 38.809C70.6776 40.2097 70.6801 42.9294 69.0295 44.3323L60.7679 51.354C58.6667 53.1396 55.5883 51.4993 55.5883 48.5923V48.3846H48.0898V76.7165C48.0898 78.5298 49.4371 79.9999 51.0988 79.9999H76.991C78.6529 79.9999 80 78.5298 80 76.7165V4.47043C79.9999 2.65708 78.6527 1.18701 76.9908 1.18701Z" fill="#1D3357"/>
<path id="Vector_2" d="M36.4688 15.121C39.02 12.3373 39.02 7.82405 36.4688 5.04034C33.9176 2.25663 29.7813 2.25663 27.2301 5.04034C24.6789 7.82405 24.6789 12.3373 27.2301 15.121C29.7813 17.9047 33.9176 17.9047 36.4688 15.121Z" fill="#1D3357"/>
<g id="Group">
<path id="Vector_3" d="M48.695 15.4086C47.3817 14.3437 45.5254 14.642 44.5494 16.0754L38.7068 24.654L33.0592 22.5469L35.9438 22.9549C35.5225 21.4017 34.3059 20.1794 32.74 19.9388L24.6391 18.716C22.9906 18.4671 21.3133 18.8306 19.8768 19.7477L10.317 25.852C9.34705 26.4725 8.78265 27.6384 8.8595 28.8622L9.78389 43.5677C9.89595 45.3513 11.313 46.695 12.9427 46.5721C14.5753 46.45 15.8082 44.9068 15.6961 43.1254L14.8973 30.4175L18.7931 27.9251L16.6692 43.5933C16.5648 44.3634 16.4884 45.1377 16.4402 45.9144L15.7673 56.754L2.9518 59.1662C1.01663 59.5305 -0.281511 61.5375 0.0523382 63.6492C0.386187 65.7606 2.22541 67.1773 4.16089 66.8129L19.7306 63.882C21.347 63.5778 22.563 62.1064 22.6738 60.3207L23.4083 48.4856L27.6145 49.2391L31.6894 58.6713L33.4192 76.5272C33.6254 78.6543 35.3718 80.2027 37.3292 79.9776C39.282 79.7524 40.6979 77.8424 40.4914 75.7116L38.6982 57.2029C38.6563 56.7709 38.5483 56.3494 38.3784 55.9564L33.5319 44.7381L35.2378 31.2842L31.1416 28.6653L38.8358 31.5361C40.0602 31.9927 41.4073 31.5293 42.1729 30.4052L49.3056 19.9319C50.2821 18.4989 50.0085 16.4736 48.695 15.4086Z" fill="#1D3357"/>
</g>
<path id="Vector_4" d="M57.4775 46.3231V48.5923C57.4775 49.7915 58.7412 50.463 59.6066 49.7275L67.8681 42.7058C68.546 42.1298 68.546 41.0115 67.8681 40.4355L59.6066 33.4139C58.7421 32.6792 57.4775 33.3488 57.4775 34.549V36.8184H46.3074C45.5314 36.8184 44.9023 37.5047 44.9023 38.3515V44.7899C44.9023 45.6366 45.5314 46.323 46.3074 46.323H57.4775V46.3231Z" fill="#1D3357"/>
</g>
</g>
</svg>
