<svg width="42" height="42" viewBox="0 0 42 42" fill="none" xmlns="http://www.w3.org/2000/svg">
<g id="entrada-metafora">
<g id="entrada-metafora_2">
<path id="Vector" d="M40.4202 0.623169H26.8268C25.9543 0.623169 25.2471 1.39496 25.2471 2.34696V6.8927C25.5404 6.97581 25.8244 7.12007 26.0827 7.32943C27.157 8.20047 27.3807 9.85693 26.5824 11.0292L25.2472 12.9899V18.2473H29.1839V18.1382C29.1839 16.6125 30.7997 15.7506 31.9032 16.6884L36.2405 20.3747C37.1057 21.1101 37.1071 22.5379 36.2405 23.2745L31.9032 26.9608C30.8 27.8983 29.1839 27.0371 29.1839 25.5109V25.4019H25.2472V40.2761C25.2472 41.2281 25.9545 41.9999 26.8269 41.9999H40.4203C41.2928 41.9999 42 41.2281 42 40.2761V2.34696C41.9999 1.39496 41.2927 0.623169 40.4202 0.623169Z" fill="white"/>
<path id="Vector_2" d="M19.1461 7.93854C20.4855 6.47709 20.4855 4.10762 19.1461 2.64617C17.8067 1.18473 15.6352 1.18473 14.2958 2.64617C12.9564 4.10762 12.9564 6.4771 14.2958 7.93854C15.6352 9.39999 17.8067 9.39999 19.1461 7.93854Z" fill="white"/>
<g id="Group">
<path id="Vector_3" d="M25.5649 8.08954C24.8754 7.53043 23.9009 7.68706 23.3884 8.43957L20.3211 12.9433L17.3561 11.8371L18.8705 12.0513C18.6493 11.2359 18.0106 10.5942 17.1885 10.4678L12.9356 9.82589C12.07 9.69525 11.1895 9.88605 10.4353 10.3675L5.41641 13.5723C4.9072 13.898 4.61089 14.5101 4.65124 15.1526L5.13654 22.873C5.19537 23.8094 5.93935 24.5149 6.79491 24.4503C7.65204 24.3862 8.2993 23.5761 8.24047 22.6408L7.82107 15.9692L9.86638 14.6607L8.75132 22.8865C8.69652 23.2908 8.65642 23.6973 8.63111 24.1051L8.27785 29.7958L1.54969 31.0623C0.533733 31.2535 -0.147793 32.3072 0.0274775 33.4158C0.202748 34.5243 1.16834 35.2681 2.18447 35.0768L10.3586 33.538C11.2072 33.3784 11.8456 32.6059 11.9037 31.6684L12.2894 25.455L14.4976 25.8505L16.6369 30.8024L17.5451 40.1768C17.6533 41.2935 18.5702 42.1064 19.5978 41.9883C20.6231 41.87 21.3664 40.8673 21.258 39.7486L20.3166 30.0315C20.2945 29.8047 20.2378 29.5834 20.1487 29.3771L17.6043 23.4875L18.4998 16.4242L16.3493 15.0493L20.3888 16.5564C21.0316 16.7962 21.7389 16.5529 22.1408 15.9627L25.8854 10.4643C26.3981 9.71193 26.2545 8.64866 25.5649 8.08954Z" fill="white"/>
</g>
<path id="Vector_4" d="M30.1757 24.3196V25.511C30.1757 26.1405 30.8391 26.4931 31.2934 26.1069L35.6308 22.4206C35.9866 22.1182 35.9866 21.5311 35.6308 21.2286L31.2934 17.5423C30.8396 17.1566 30.1757 17.5081 30.1757 18.1383V19.3297H24.3114C23.904 19.3297 23.5737 19.69 23.5737 20.1345V23.5147C23.5737 23.9592 23.904 24.3196 24.3114 24.3196H30.1757V24.3196Z" fill="white"/>
</g>
</g>
</svg>
