<svg width="42" height="42" viewBox="0 0 42 42" fill="none" xmlns="http://www.w3.org/2000/svg">
<g id="saida-metafora">
<g id="Group">
<g id="Group_2">
<path id="Vector" d="M41.17 24.2799H39.7329C39.7329 23.591 39.7329 23.1385 39.7329 22.4648C39.7329 22.0079 39.3613 21.6375 38.9029 21.6375H38.412C38.4704 20.9224 38.0076 20.248 37.2868 20.0634C36.7141 19.9166 33.1019 18.9912 32.5448 18.8485L34.0724 14.8609C34.5146 13.7062 33.9347 12.4121 32.7752 11.9708L29.2784 10.6222C28.6082 10.3637 27.8883 10.2977 27.1815 10.427C24.4067 10.9343 19.8463 11.7684 19.3195 11.8643C18.9711 11.9278 18.6565 12.1116 18.4305 12.3833L15.3263 16.1177V4.87017C15.3263 4.43065 15.0353 4.04395 14.6121 3.92082L7.93437 1.97832H25.2481V9.28116L27.2325 9.02276V0.989347C27.2325 0.443182 26.7882 0.000376347 26.2403 0.000376347C26.0996 0.000376347 0.98847 -0.0018385 0.911767 0.00447792C0.386374 0.0476264 0.000806141 0.487807 0.000806141 0.989347C0.000806141 1.232 -0.00388487 37.148 0.00936518 37.2534C0.0598141 37.653 0.346377 37.9716 0.715074 38.0789L14.0562 41.9598C14.6918 42.1449 15.3263 41.6676 15.3263 41.0104V20.5284C15.5563 20.4387 15.768 20.2935 15.9367 20.0904L20.4008 14.7201C20.9442 14.6211 24.7642 13.9246 25.3781 13.8127L22.0233 22.5706C22.0233 22.5706 22.1429 22.2694 19.9072 29.8975L17.3055 34.827V39.4973H17.3055C18.0713 39.6835 18.8914 39.3352 19.2731 38.6118L23.0949 31.3707C23.1495 31.2674 23.1934 31.1588 23.2263 31.0468L25.3405 23.8331C25.4942 23.8916 25.4185 23.8628 25.8169 24.0144C26.3493 24.8478 28.9698 28.9501 29.4999 29.7801L26.8524 37.2124C26.5281 38.1227 27.0056 39.1226 27.9188 39.4458C28.8271 39.7673 29.8346 39.2948 30.1595 38.3829L33.0935 30.146C33.2699 29.6507 33.2172 29.0864 32.9201 28.6215L30.3453 24.5907C30.7205 23.6111 31.0862 22.6564 31.4632 21.6722C32.8929 22.0384 33.834 22.2796 33.834 22.2796L33.8124 24.28H32.3753C32.1885 24.28 32.0169 24.3423 31.8783 24.4459L34.0767 27.8875C34.5974 28.7027 34.71 29.6925 34.3857 30.6032L34.0205 31.6285H41.1702C41.6285 31.6285 42 31.2581 42 30.8014V25.1072C42 24.6502 41.6284 24.2799 41.17 24.2799ZM12.4984 26.0015C12.4984 26.5477 12.0542 26.9905 11.5062 26.9905C10.9583 26.9905 10.514 26.5477 10.514 26.0015V20.2925C10.514 19.7463 10.9583 19.3035 11.5062 19.3035C12.0542 19.3035 12.4984 19.7463 12.4984 20.2925V26.0015ZM38.073 24.2799H38.073H35.4724V23.2921H38.073V24.2799Z" fill="white"/>
</g>
</g>
<g id="Group_3">
<g id="Group_4">
<path id="Vector_2" d="M25.9218 26.7231L25.248 29.0223V36.1408H22.1265L21.0825 38.1188H25.3954C25.3477 37.6633 25.402 37.1995 25.5604 36.7551L27.2325 32.0611V28.7749L25.9218 26.7231Z" fill="white"/>
</g>
</g>
<g id="Group_5">
<g id="Group_6">
<path id="Vector_3" d="M34.2429 4.1536C32.5274 3.50071 30.6057 4.35761 29.9507 6.06755C29.2899 7.79226 30.173 9.69966 31.8709 10.3458C33.5708 10.9929 35.5032 10.1545 36.1631 8.43186C36.818 6.72192 35.9584 4.80649 34.2429 4.1536Z" fill="white"/>
</g>
</g>
</g>
</svg>
