<svg width="23" height="26" viewBox="0 0 23 26" fill="none" xmlns="http://www.w3.org/2000/svg">
<path d="M21.1646 11.1717V7.94408C21.1646 3.56374 16.8291 0 11.5 0C6.17095 0 1.83547 3.56374 1.83547 7.94408V11.1717C1.07384 11.3031 0.5 11.8593 0.5 12.5239V24.6182C0.5 25.3801 1.25414 26 2.1811 26H20.8189C21.7459 26 22.5 25.3801 22.5 24.6182V12.5239C22.5 11.8593 21.9262 11.3031 21.1646 11.1717ZM2.98778 24.4997C2.40368 24.4997 1.93011 24.1106 1.93011 23.6304C1.93011 23.1502 2.4036 22.761 2.98778 22.761C3.57196 22.761 4.04545 23.1502 4.04545 23.6304C4.04545 24.1105 3.57188 24.4997 2.98778 24.4997ZM2.98778 14.3809C2.40368 14.3809 1.93011 13.9917 1.93011 13.5116C1.93011 13.0314 2.4036 12.6422 2.98778 12.6422C3.57196 12.6422 4.04545 13.0314 4.04545 13.5116C4.04545 13.9917 3.57188 14.3809 2.98778 14.3809ZM13.7579 21.4814C13.7922 21.6308 13.669 21.753 13.4841 21.753H9.56064C9.37572 21.753 9.25249 21.6308 9.28679 21.4814L9.91148 18.7601C9.43859 18.4056 9.14179 17.8951 9.14179 17.3276C9.14179 16.257 10.1976 15.3891 11.5 15.3891C12.8025 15.3891 13.8583 16.257 13.8583 17.3276C13.8583 17.8797 13.577 18.3774 13.1264 18.7305L13.7579 21.4814ZM17.8024 11.1421H5.19767V7.94415C5.19767 5.08763 8.02487 2.76373 11.5 2.76373C14.9752 2.76373 17.8024 5.0877 17.8024 7.94415V11.1421ZM20.0123 24.4997C19.4282 24.4997 18.9546 24.1106 18.9546 23.6304C18.9546 23.1502 19.4281 22.761 20.0123 22.761C20.5965 22.761 21.07 23.1502 21.07 23.6304C21.07 24.1105 20.5964 24.4997 20.0123 24.4997ZM20.0123 14.3809C19.4282 14.3809 18.9546 13.9917 18.9546 13.5116C18.9546 13.0314 19.4281 12.6422 20.0123 12.6422C20.5965 12.6422 21.07 13.0314 21.07 13.5116C21.07 13.9917 20.5964 14.3809 20.0123 14.3809Z" fill="#344968"/>
</svg>
