<svg width="80" height="80" viewBox="0 0 80 80" fill="none" xmlns="http://www.w3.org/2000/svg">
<g id="saida-icon-blue">
<g id="Group">
<g id="Group_2">
<path id="Vector" d="M78.4191 46.2474H75.6818C75.6818 44.9352 75.6818 44.0733 75.6818 42.7902C75.6818 41.9198 74.974 41.2142 74.1007 41.2142H73.1658C73.2769 39.8522 72.3955 38.5677 71.0226 38.2159C69.9315 37.9364 63.0512 36.1737 61.9901 35.9019L64.8997 28.3064C65.7421 26.107 64.6375 23.642 62.429 22.8015L55.7684 20.2328C54.4919 19.7404 53.1205 19.6147 51.7743 19.8609C46.489 20.8273 37.8025 22.4159 36.799 22.5987C36.1354 22.7197 35.5361 23.0697 35.1057 23.5873L29.1929 30.7003V9.27651C29.1929 8.43933 28.6387 7.70276 27.8325 7.46823L15.1131 3.76822H48.0916V17.6784L51.8713 17.1862V1.88447C51.8713 0.844156 51.0252 0.000716852 49.9815 0.000716852C49.7136 0.000716852 1.8828 -0.00350191 1.7367 0.00852937C0.735951 0.090717 0.00153551 0.929156 0.00153551 1.88447C0.00153551 2.34666 -0.00739975 70.758 0.0178384 70.9588C0.113932 71.7201 0.659766 72.3268 1.36205 72.5313L26.7738 79.9234C27.9844 80.276 29.193 79.3669 29.193 78.1151V39.1017C29.631 38.9309 30.0343 38.6542 30.3555 38.2675L38.8586 28.0383C39.8937 27.8497 47.1698 26.5231 48.3392 26.31L41.9491 42.9916C41.9491 42.9916 42.1769 42.4178 37.9185 56.9475L32.9628 66.3371V75.233H32.9629C34.4216 75.5877 35.9837 74.9241 36.7107 73.5463L43.9903 59.7536C44.0942 59.5569 44.1779 59.3502 44.2406 59.1368L48.2676 45.3964C48.5604 45.5078 48.4162 45.453 49.1751 45.7417C50.1892 47.3292 55.1805 55.143 56.1902 56.7239L51.1474 70.8808C50.5298 72.6146 51.4392 74.5193 53.1787 75.1349C54.9087 75.7473 56.8279 74.8473 57.4466 73.1102L63.0352 57.421C63.3712 56.4775 63.2708 55.4027 62.7049 54.5171L57.8006 46.8394C58.5152 44.9736 59.2119 43.155 59.93 41.2803C62.6531 41.978 64.4458 42.4374 64.4458 42.4374L64.4045 46.2477H61.6672C61.3115 46.2477 60.9845 46.3663 60.7205 46.5636L64.908 53.1191C65.8998 54.6717 66.1143 56.5572 65.4965 58.2919L64.801 60.2447H78.4194C79.2924 60.2447 80 59.5393 80 58.6693V47.8233C80 46.9528 79.2922 46.2474 78.4191 46.2474ZM23.8065 49.5267C23.8065 50.5671 22.9603 51.4105 21.9166 51.4105C20.8729 51.4105 20.0267 50.5671 20.0267 49.5267V38.6523C20.0267 37.612 20.8729 36.7686 21.9166 36.7686C22.9603 36.7686 23.8065 37.612 23.8065 38.6523V49.5267ZM72.5201 46.2474H72.5199H67.5665V44.3659H72.5201V46.2474Z" fill="#1D3357"/>
</g>
</g>
<g id="Group_3">
<g id="Group_4">
<path id="Vector_2" d="M49.375 50.9011L48.0914 55.2805V68.8394H42.1457L40.1572 72.6071H48.3722C48.2814 71.7396 48.3849 70.856 48.6865 70.0096L51.8715 61.0686V54.8093L49.375 50.9011Z" fill="#1D3357"/>
</g>
</g>
<g id="Group_5">
<g id="Group_6">
<path id="Vector_3" d="M65.2245 7.91159C61.9569 6.668 58.2966 8.30019 57.0489 11.5572C55.7903 14.8424 57.4723 18.4755 60.7064 19.7063C63.9444 20.9388 67.6251 19.3419 68.882 16.0607C70.1295 12.8036 68.4922 9.15519 65.2245 7.91159Z" fill="#1D3357"/>
</g>
</g>
</g>
</svg>
