<svg width="23" height="26" viewBox="0 0 23 26" fill="none" xmlns="http://www.w3.org/2000/svg">
<path d="M22.5 20.528L22.4116 20.6319C19.5018 24.0936 15.6258 26 11.5 26C7.37355 26 3.49823 24.0942 0.587771 20.6319L0.5 20.528L0.520724 20.392C1.0827 16.7581 2.99781 13.8396 5.91314 12.1713L6.12038 12.0528L6.28556 12.2245C7.66246 13.6559 9.51418 14.4444 11.4994 14.4444C13.4846 14.4444 15.3363 13.6553 16.7132 12.2245L16.8784 12.0528L17.0856 12.1713C20.001 13.8402 21.9161 16.7587 22.4787 20.392L22.5 20.528ZM11.5 12.984C15.1108 12.984 18.0487 10.0715 18.0487 6.49199C18.0487 2.91245 15.1108 0 11.5 0C7.88921 0 4.95132 2.91245 4.95132 6.49199C4.95132 10.0715 7.88921 12.984 11.5 12.984ZM19.6273 19.244C19.6273 18.5769 19.0812 18.0355 18.4083 18.0355H13.1256C12.4527 18.0355 11.9065 18.5769 11.9065 19.244C11.9065 19.911 12.4527 20.4524 13.1256 20.4524H18.4083C19.0812 20.4524 19.6273 19.911 19.6273 19.244Z" fill="#344968"/>
</svg>
