<svg width="39" height="39" viewBox="0 0 39 39" fill="none" xmlns="http://www.w3.org/2000/svg">
<path d="M19.5 0C8.73157 0 0 8.73025 0 19.5C0 30.2698 8.73072 39 19.5 39C30.2701 39 39 30.2698 39 19.5C39 8.73025 30.2701 0 19.5 0ZM19.5 5.83073C23.0632 5.83073 25.9506 8.71911 25.9506 12.2808C25.9506 15.8433 23.0632 18.7308 19.5 18.7308C15.9385 18.7308 13.0511 15.8433 13.0511 12.2808C13.0511 8.71911 15.9385 5.83073 19.5 5.83073ZM19.4957 33.9016C15.9419 33.9016 12.6871 32.6074 10.1766 30.4651C9.56499 29.9434 9.21209 29.1785 9.21209 28.3759C9.21209 24.7637 12.1355 21.8727 15.7484 21.8727H23.2534C26.8671 21.8727 29.7793 24.7637 29.7793 28.3759C29.7793 29.1793 29.4282 29.9425 28.8157 30.4642C26.3061 32.6074 23.0504 33.9016 19.4957 33.9016Z" fill="#1D3557"/>
</svg>
